<svg width="66" height="65" viewBox="0 0 66 65" fill="none" xmlns="http://www.w3.org/2000/svg">
<path d="M45.6908 45.479L44.6048 43.6001C43.9011 44.0051 43.3 44.5666 42.8482 45.2412C42.3964 45.9158 42.106 46.6854 41.9994 47.4903C41.8929 48.2952 41.9731 49.1138 42.2338 49.8828C42.4945 50.6517 42.9287 51.3503 43.5028 51.9244C44.077 52.4985 44.7755 52.9328 45.5445 53.1935C46.3134 53.4542 47.132 53.5344 47.9369 53.4278C48.7418 53.3213 49.5114 53.0308 50.186 52.579C50.8606 52.1272 51.4222 51.5262 51.8271 50.8225L49.9482 49.7364C49.7093 50.1507 49.3783 50.5044 48.9807 50.7702C48.5832 51.0361 48.1298 51.2069 47.6557 51.2694C47.1815 51.3319 46.6994 51.2845 46.2465 51.1309C45.7936 50.9772 45.3822 50.7214 45.044 50.3832C44.7059 50.0451 44.45 49.6336 44.2964 49.1807C44.1427 48.7279 44.0953 48.2457 44.1578 47.7716C44.2204 47.2974 44.3912 46.8441 44.657 46.4465C44.9228 46.049 45.2766 45.7179 45.6908 45.479Z" fill="#1A77B5"/>
<path d="M65.0882 35.4004V33.2283H61.1132L63.8175 29.9701L62.1558 28.5799L59.4732 31.8381L58.8107 27.8739L56.6386 28.2323L57.6052 34.032L56.4757 35.3895C54.7474 34.1372 52.7827 33.2492 50.7007 32.7795C48.6187 32.3098 46.463 32.2682 44.3645 32.6572C42.2659 33.0462 40.2684 33.8578 38.4931 35.0425C36.7178 36.2273 35.2019 37.7606 34.0374 39.5492C32.2622 38.9963 30.4466 38.5823 28.6071 38.3111V35.9C30.0792 35.1074 31.3759 34.0254 32.4192 32.7189C33.4625 31.4124 34.2309 29.9085 34.6782 28.2975H34.8954C36.0759 28.2192 37.1782 27.6799 37.9645 26.7961C38.7508 25.9122 39.1581 24.7546 39.0985 23.5731C39.0989 22.5942 38.816 21.6362 38.284 20.8145L39.0985 12.7124C39.2292 11.3975 39.0874 10.0698 38.6819 8.81216C38.2764 7.55454 37.6159 6.39404 36.7418 5.40314C36.0183 4.57634 35.1243 3.91616 34.1212 3.46806C33.1181 3.01995 32.0298 2.79457 30.9313 2.80743H30.6706C29.6325 1.37586 28.0713 0.411829 26.3263 0.124839C25.8924 0.0483671 25.4528 0.00840477 25.0122 0.00537109H23.1442C14.0212 0.00537109 6.60331 6.79331 6.60331 15.1452C6.59747 15.1957 6.59747 15.2467 6.60331 15.2972L7.37442 20.8579C6.86347 21.6714 6.59243 22.6125 6.59245 23.5731C6.5617 24.1643 6.64772 24.7558 6.84559 25.3137C7.04347 25.8717 7.34932 26.3852 7.74568 26.8249C8.14204 27.2646 8.62114 27.622 9.15562 27.8765C9.69011 28.131 10.2695 28.2778 10.8607 28.3084H11.0128C11.2757 29.8028 11.8385 31.2286 12.6673 32.4997C13.496 33.7708 14.5735 34.861 15.8349 35.7045V38.3002C12.2074 38.7564 0 40.8525 0 48.5853V61.7702C0 62.0582 0.114425 62.3345 0.318103 62.5382C0.52178 62.7418 0.798027 62.8563 1.08607 62.8563H41.3901C44.4803 64.1053 47.8867 64.343 51.1204 63.5355C54.3541 62.728 57.2488 60.9166 59.3889 58.3615C61.5291 55.8063 62.8046 52.6388 63.0324 49.3136C63.2603 45.9884 62.4287 42.6765 60.657 39.8533L58.8107 41.0045C59.7779 42.5608 60.4205 44.2964 60.7001 46.1072C60.9797 47.9181 60.8904 49.7667 60.4376 51.5422C59.9848 53.3176 59.1779 54.9832 58.0653 56.439C56.9526 57.8948 55.5572 59.1107 53.9629 60.0137C52.3686 60.9167 50.6082 61.4881 48.7875 61.6937C46.9668 61.8993 45.1233 61.7348 43.3678 61.2101C41.6122 60.6854 39.9808 59.8113 38.5716 58.6403C37.1623 57.4693 36.0043 56.0256 35.167 54.3958L34.8846 53.7984C34.0765 52.0334 33.6614 50.1138 33.6682 48.1726C33.6693 45.6823 34.3542 43.2402 35.6483 41.1125C36.9424 38.9849 38.796 37.2535 41.0068 36.1072C43.2175 34.9609 45.7006 34.4437 48.1852 34.6121C50.6698 34.7805 53.0605 35.628 55.0964 37.0621L52.9242 39.6252C50.8224 38.2373 48.2818 37.6753 45.7907 38.0473C43.2996 38.4192 41.034 39.6989 39.4294 41.6403C37.8247 43.5817 36.9944 46.0478 37.098 48.5644C37.2016 51.0809 38.2319 53.4704 39.9907 55.2733C41.7495 57.0762 44.1126 58.1653 46.6259 58.3312C49.1391 58.4972 51.625 57.7282 53.6055 56.1722C55.5861 54.6161 56.9215 52.3829 57.3551 49.9018C57.7887 47.4207 57.2898 44.8669 55.9543 42.7314L54.108 43.8826C55.1756 45.5854 55.5787 47.6216 55.2406 49.6026C54.9025 51.5837 53.8467 53.3709 52.2749 54.6232C50.703 55.8754 48.725 56.505 46.7185 56.3918C44.712 56.2787 42.8174 55.4306 41.3963 54.0095C39.9752 52.5884 39.1271 50.6938 39.014 48.6873C38.9008 46.6808 39.5304 44.7028 40.7826 43.1309C42.0349 41.5591 43.8221 40.5033 45.8032 40.1652C47.7842 39.8271 49.8204 40.2302 51.5232 41.2978L48.265 45.1642V42.9269H46.0928V48.1726C46.0929 48.3958 46.1618 48.6136 46.29 48.7962C46.4183 48.9789 46.5997 49.1176 46.8096 49.1935C46.9283 49.2353 47.0531 49.2573 47.1789 49.2587H52.4246V47.0865H49.5683L56.758 38.4523L56.9535 38.6369C57.2559 38.9372 57.5388 39.2564 57.8007 39.5926L59.4949 38.2133C59.18 37.8332 58.8542 37.4639 58.5066 37.1273L58.1482 36.8014L59.2994 35.4113L65.0882 35.4004ZM25.729 40.3312L25.6204 40.4181L25.4792 40.5158H25.4032H25.3489L25.186 40.6027H25.0774H25.0122H24.8493H24.7407H24.6755H24.4366H19.9728C19.5596 40.5948 19.1583 40.4623 18.8216 40.2226C18.6086 40.0649 18.4289 39.8667 18.2928 39.6393C18.1568 39.4119 18.067 39.1598 18.0288 38.8976C18.0225 38.8108 18.0225 38.7237 18.0288 38.6369V36.8883C18.4052 37.0361 18.7896 37.163 19.18 37.2684L19.4624 37.3445C19.8244 37.4314 20.1864 37.5074 20.5485 37.5726L20.9286 37.6269C21.3897 37.6865 21.8538 37.7191 22.3187 37.7246C22.6152 37.7459 22.9128 37.7459 23.2093 37.7246H23.5243C23.8126 37.6979 24.0991 37.6544 24.3823 37.5943H24.4909C24.8276 37.5291 25.1643 37.4422 25.5009 37.3445C25.7942 37.2467 26.1091 37.149 26.3915 37.0404V38.9627C26.3983 39.0495 26.3983 39.1366 26.3915 39.2234C26.3768 39.3459 26.3476 39.4662 26.3046 39.5818C26.2841 39.6522 26.2587 39.7212 26.2286 39.7881L26.1743 39.8642V39.9402C26.1473 39.9845 26.11 40.0218 26.0657 40.0488L26.0005 40.1248C25.9215 40.2075 25.8298 40.2771 25.729 40.3312ZM34.9063 26.1362V20.9991H35.1018H35.2864L35.4928 21.086L35.6557 21.1512L35.8403 21.2706L36.0032 21.3792C36.0776 21.45 36.1466 21.5263 36.2096 21.6073L36.3073 21.7051C36.7219 22.2383 36.9405 22.8978 36.9264 23.5731C36.9855 24.1784 36.8082 24.7832 36.4318 25.2609C36.0553 25.7386 35.5087 26.0522 34.9063 26.1362ZM23.1442 2.17751H25.0556C25.3652 2.18102 25.674 2.21008 25.9788 2.2644C26.6305 2.3747 27.2501 2.6263 27.7942 3.00155C28.3383 3.37679 28.7937 3.86658 29.1284 4.43654C29.2227 4.6043 29.3599 4.74399 29.5259 4.84132C29.6919 4.93864 29.8808 4.9901 30.0733 4.99043H30.9313C31.7229 4.98482 32.5065 5.1486 33.2296 5.47079C33.9526 5.79299 34.5984 6.26614 35.1235 6.85848C35.7895 7.62512 36.2928 8.51914 36.6027 9.48625C36.9126 10.4533 37.0228 11.4734 36.9264 12.4843L36.2639 19.0876L35.9163 18.979L35.6883 18.9139C35.4319 18.8533 35.1697 18.8205 34.9063 18.8161V17.8061C34.9097 17.5457 34.8194 17.2929 34.6519 17.0935C34.4845 16.8942 34.251 16.7616 33.994 16.72C31.4254 16.1763 29.0926 14.8389 27.3255 12.897C27.2238 12.7812 27.0985 12.6883 26.958 12.6247C26.8176 12.561 26.6652 12.528 26.511 12.5278C26.3568 12.528 26.2044 12.561 26.0639 12.6247C25.9235 12.6883 25.7982 12.7812 25.6964 12.897C25.6417 12.9555 25.5797 13.0066 25.5118 13.0491C23.079 14.9497 13.6953 17.2413 12.2835 16.8069C12.1175 16.7394 11.9375 16.714 11.7594 16.7329C11.5812 16.7519 11.4106 16.8146 11.2626 16.9155C11.1152 17.0151 10.9945 17.1494 10.9112 17.3066C10.8278 17.4638 10.7844 17.639 10.7847 17.8169V18.827C10.5106 18.8327 10.2378 18.8654 9.97013 18.9247L9.73119 19.0007C9.60086 19.0007 9.45967 19.0768 9.34021 19.1311L8.77545 15.0692C8.81889 7.95541 15.205 2.17751 23.1442 2.17751ZM8.77545 23.5731C8.77216 22.9212 8.98616 22.2869 9.38365 21.7702C9.47358 21.6515 9.57548 21.5423 9.68775 21.4444L9.79636 21.3684C9.86709 21.307 9.94345 21.2525 10.0244 21.2055L10.1873 21.1403L10.4046 21.0534H10.5892H10.7847V26.1797C10.1759 26.0931 9.62512 25.7722 9.24974 25.2852C8.87436 24.7982 8.70416 24.1838 8.77545 23.5731ZM13.0328 26.9291C13.0328 26.6901 13.0328 26.4295 13.0328 26.1797V18.979C16.4648 18.8704 23.6655 16.872 26.4784 15.1018C28.2638 16.7991 30.4377 18.0333 32.8102 18.6966V26.1797C32.8267 26.3893 32.8267 26.5999 32.8102 26.8096V26.8856C32.5278 29.7963 30.3448 32.6418 27.1083 34.3143C26.6956 34.5207 26.3046 34.6945 25.8811 34.8574C25.4575 35.0203 25.3163 35.0746 25.0122 35.1615C24.7081 35.2484 24.5017 35.3027 24.2411 35.357H24.1108C23.871 35.4098 23.6279 35.4461 23.3831 35.4656H23.155C22.9164 35.4818 22.6769 35.4818 22.4382 35.4656C20.7346 35.4653 19.0635 34.9996 17.6052 34.1188C16.9541 33.7298 16.3555 33.2589 15.824 32.7178C14.2398 31.178 13.2511 29.1275 13.0328 26.9291ZM2.17214 48.5853C2.17214 43.155 11.6427 40.9828 16.1607 40.4506C16.199 40.5489 16.2463 40.6434 16.3019 40.733L16.3779 40.8959C16.6109 41.2999 16.9039 41.666 17.2468 41.982L17.3228 42.0472C17.4732 42.1716 17.6329 42.2842 17.8007 42.3838L17.9527 42.4816L18.4089 42.6988L18.5935 42.7748C18.7603 42.8333 18.9308 42.8805 19.104 42.916H19.2669C19.4997 42.9597 19.736 42.9816 19.9728 42.9812H24.4583C24.6606 42.9992 24.8642 42.9992 25.0665 42.9812C25.2664 42.9546 25.4629 42.9072 25.653 42.84C25.7388 42.8191 25.8225 42.79 25.9028 42.7531H26.0222L26.1417 42.6988L26.435 42.5576H26.5001L26.7608 42.3838C26.8838 42.307 27.0001 42.2198 27.1083 42.1232C27.2213 42.0265 27.3266 41.9212 27.4233 41.8082L27.4884 41.7431C27.5458 41.6873 27.5968 41.6254 27.6405 41.5584C27.71 41.4749 27.7752 41.3879 27.836 41.2978C27.8961 41.2071 27.9505 41.1128 27.9989 41.0154C28.069 40.8893 28.1307 40.7587 28.1835 40.6244C29.7813 40.853 31.3603 41.1978 32.9079 41.6562C31.9792 43.7032 31.4978 45.9248 31.496 48.1726C31.4982 50.495 32.0176 52.7879 33.0165 54.8845V60.6841H10.0896V53.7984H7.91745V60.6841H2.17214V48.5853ZM37.6106 60.6841H35.167V58.2948C35.894 59.176 36.7132 59.977 37.6106 60.6841Z" fill="#1A77B5"/>
</svg>
