<svg width="56" height="56" viewBox="0 0 56 56" fill="none" xmlns="http://www.w3.org/2000/svg">
<path d="M55.8304 25.964C55.8622 25.878 55.8805 25.7881 55.8845 25.6964C55.8845 25.5997 55.8689 25.5035 55.8389 25.4118L55.7682 25.2117C55.02 17.9803 51.4302 11.3423 45.7879 6.75822C45.3847 6.42976 44.9631 6.13308 44.5416 5.82879C44.5206 5.81133 44.5094 5.78672 44.4866 5.77016C44.4637 5.75361 44.4454 5.7554 44.4262 5.74332C39.7611 2.39924 34.1684 0.596308 28.4285 0.585568C28.1922 0.585568 27.9546 0.585568 27.7778 0.603915C24.7161 0.663431 21.6875 1.24606 18.8222 2.32674C16.3382 0.389121 12.9664 0.0378429 10.136 1.42192C7.30569 2.806 5.5126 5.68335 5.51708 8.83367C5.57212 9.88169 5.81555 10.9109 6.23664 11.8717C5.30139 13.1501 4.47801 14.5065 3.7759 15.9264C3.76203 15.9483 3.75397 15.972 3.74189 15.9948C-2.75563 29.4298 2.65092 45.5953 15.9239 52.4177C29.1964 59.2405 45.4885 54.2291 52.6322 41.1262C54.5886 37.5217 55.7006 33.5198 55.8836 29.423C55.9123 28.9809 55.9221 28.5303 55.9221 28.0792C55.9221 27.3691 55.8854 26.6652 55.8304 25.964ZM53.1674 21.2609C53.051 21.1575 52.9436 21.038 52.8219 20.9427C51.6245 20.0334 50.2672 19.3555 48.8205 18.9442C47.5031 18.6135 46.1262 18.5992 44.802 18.9021C43.6757 19.1572 42.5078 19.163 41.3788 18.9192C39.1879 18.4408 37.4565 18.0636 36.5383 16.5971C35.2231 14.489 35.8398 11.5262 37.2274 10.4836C37.6847 10.1681 38.249 10.0477 38.7954 10.1488C39.7674 10.2285 40.7442 10.0638 41.6365 9.67047C42.5861 9.22567 43.4296 8.58352 44.1111 7.7861C44.2843 7.9199 44.4673 8.04027 44.6369 8.17855C48.7726 11.5454 51.7542 16.1188 53.1674 21.2609ZM13.7652 2.41848C17.3061 2.4243 20.175 5.29314 20.1804 8.83367C20.1804 11.575 16.063 17.851 13.7652 21.0326C11.5864 18.0882 9.69304 14.9423 8.11161 11.6381C7.68068 10.7606 7.42203 9.80874 7.34999 8.83367C7.35402 5.29225 10.2238 2.42251 13.7652 2.41848ZM2.76771 28.0792C2.77129 26.3716 2.94357 24.668 3.28187 22.994C3.37987 24.268 3.54589 25.4015 3.69446 26.3846C4.26232 30.1422 4.79886 33.6845 7.56836 36.9238C8.72646 38.2887 10.6659 40.5704 13.6645 40.9078C16.6631 41.2452 20.418 39.5202 21.5027 38.9832L21.9189 38.7733C22.4952 38.4104 23.1539 38.1996 23.8337 38.1602C24.9931 38.2654 26.0671 38.814 26.8323 39.6916C28.3962 41.4229 28.7932 44.3137 27.6816 45.8776C27.3254 46.3421 26.8336 46.684 26.2738 46.8558C25.3157 47.1762 24.5013 47.8255 23.9755 48.6887C23.2009 50.0912 23.0568 51.7563 23.5795 53.271C11.5098 50.9324 2.78651 40.3735 2.76771 28.0792ZM28.4285 53.74C27.5429 53.74 26.6582 53.6943 25.7771 53.6035C25.7019 53.5073 25.6321 53.4071 25.5681 53.3028C24.9488 52.1572 24.9421 50.7776 25.5507 49.6262C25.8814 49.1009 26.3937 48.7156 26.9898 48.5438C27.8637 48.2426 28.6263 47.6828 29.1753 46.9391C30.7693 44.6976 30.3182 40.8143 28.1949 38.4654C27.0905 37.2026 25.5278 36.4329 23.8538 36.3273H23.8131C22.8478 36.3564 21.9072 36.6366 21.0829 37.1404L20.6918 37.3382C18.6893 38.3254 15.8402 39.3013 13.8681 39.0794C11.5922 38.8248 10.0116 36.9623 8.96318 35.729C6.53243 32.8879 6.05675 29.7443 5.50723 26.1063C4.91744 22.994 4.89417 19.8012 5.43742 16.6804C5.92832 15.6865 6.48276 14.7253 7.09805 13.8026C7.12848 13.8634 7.16204 13.9256 7.18979 13.986C7.24841 14.1024 7.30882 14.2178 7.37281 14.3342C7.46454 14.5074 7.55628 14.6805 7.64802 14.8551C7.71111 14.9723 7.7751 15.0896 7.84043 15.2077C7.93754 15.3818 8.03554 15.5558 8.13443 15.7299C8.20066 15.8454 8.26644 15.9613 8.33357 16.0767C8.43559 16.2508 8.53762 16.424 8.64054 16.5971C8.70811 16.7108 8.77524 16.8236 8.8437 16.9363C8.95199 17.1194 9.06118 17.2907 9.17037 17.4675C9.23257 17.5677 9.29388 17.6693 9.35339 17.7682C9.48898 17.9857 9.62368 18.1965 9.75837 18.4099C9.79417 18.465 9.82997 18.5227 9.86487 18.5768C10.0327 18.8368 10.1991 19.0905 10.3625 19.338C10.4247 19.4297 10.4851 19.5215 10.5459 19.6132C10.6466 19.7645 10.7473 19.9157 10.8453 20.0602L11.0628 20.3784C11.1416 20.4948 11.2212 20.6111 11.2982 20.7221L11.5179 21.038C11.5859 21.1365 11.6539 21.2327 11.7188 21.3249C11.7837 21.4175 11.8571 21.5222 11.9251 21.6166C11.9927 21.711 12.0388 21.7768 12.0929 21.8529L12.2759 22.1057L12.4254 22.3129L12.5713 22.5138L12.6903 22.6749L12.8022 22.8271L12.8689 22.9188C12.9507 23.0298 13.0129 23.113 13.0304 23.1358C13.2031 23.3667 13.4748 23.5028 13.7634 23.5028C14.052 23.5028 14.3236 23.3667 14.4964 23.1358C15.2656 22.116 22.0133 13.0696 22.0133 8.83367C22.0133 8.56607 21.9967 8.30026 21.9712 8.03624C21.9632 7.9548 21.9502 7.87336 21.9399 7.79192C21.9162 7.60845 21.888 7.42498 21.8486 7.24195C21.8311 7.15022 21.8119 7.0643 21.7918 6.97614C21.7493 6.79268 21.7 6.60965 21.6441 6.42618C21.6213 6.35279 21.602 6.27851 21.5779 6.20647C21.4955 5.96079 21.4029 5.71781 21.2977 5.48153C21.2776 5.43634 21.2534 5.3898 21.2324 5.34863C21.1407 5.158 21.0494 4.96916 20.9438 4.7848C20.8981 4.70246 20.8476 4.62281 20.7983 4.54181C20.7102 4.39727 20.6185 4.25497 20.5231 4.11491C20.4663 4.03346 20.4086 3.95202 20.3491 3.87192C20.3177 3.83165 20.2913 3.78869 20.2573 3.74931C22.1641 3.10716 24.1415 2.69726 26.1467 2.52856C24.7179 5.22557 24.2512 7.72032 24.7846 9.95194C25.1824 11.4466 25.9373 12.8226 26.9844 13.9614C27.8467 15.0291 28.4669 15.7988 28.4285 17.0554C28.3497 19.713 25.3484 21.9254 24.2127 22.7613C22.723 23.8339 21.0579 24.6381 19.2917 25.1383C17.627 25.682 16.191 26.151 15.6419 27.7897C15.0991 29.9538 15.9905 32.2243 17.861 33.4406C18.982 34.046 20.303 34.1628 21.513 33.7632C22.8384 33.4554 24.2087 33.3896 25.5574 33.5699C27.2986 33.8165 28.7999 34.0281 29.5118 35.0251C29.9343 35.6208 29.9123 36.2365 29.83 37.366C29.642 38.9648 29.8045 40.5856 30.3052 42.1156C30.7232 43.3695 31.3546 45.2628 32.8716 45.4811C32.97 45.4968 33.0698 45.5049 33.1692 45.5049C34.2427 45.5049 34.8996 44.5571 35.5905 43.5601C35.8957 43.1193 36.2322 42.6436 36.6354 42.1662C38.5216 45.2136 40.4377 47.7566 40.5267 47.8774C40.6999 48.1084 40.9716 48.2439 41.2597 48.2439C41.5484 48.2439 41.82 48.1084 41.9932 47.8774C43.9814 45.2149 45.7937 42.4244 47.4176 39.5251C48.5435 39.8513 49.6157 40.34 50.6002 40.9758C46.0147 48.8803 37.5666 53.744 28.4285 53.74ZM45.5341 28.8006C46.8958 30.0151 47.6745 31.7531 47.674 33.578C47.674 34.2371 47.4064 35.5438 46.1356 38.0256C44.6848 40.7145 43.056 43.3028 41.2588 45.7734C40.3965 44.5719 38.9127 42.4391 37.585 40.1977C36.8448 38.9689 36.1839 37.6949 35.6053 36.3824C35.1743 35.5048 34.9157 34.553 34.8437 33.578C34.8477 30.0365 37.7174 27.1668 41.2588 27.1628C41.4571 27.1628 41.6535 27.1717 41.8491 27.1896C43.2193 27.3136 44.5125 27.8792 45.5341 28.8006ZM54.057 29.3286C53.899 32.8146 53.0206 36.2298 51.4763 39.3591C50.4722 38.7241 49.3901 38.2202 48.258 37.8595C48.9659 36.5345 49.3915 35.0762 49.5069 33.578C49.4993 30.433 47.7112 27.5637 44.8907 26.1711L44.8329 26.1456C44.628 26.0467 44.4199 25.9541 44.2073 25.8709C44.0615 25.8141 43.9102 25.7697 43.7607 25.7223C43.669 25.6946 43.5867 25.6601 43.4976 25.6306C43.2613 25.5635 43.021 25.5089 42.7794 25.4637H42.7673C42.621 25.4364 42.4724 25.4216 42.3239 25.4024C39.9674 25.0761 37.5854 25.7908 35.7977 27.3601C34.0095 28.9299 32.9924 31.1991 33.0107 33.578C33.0819 34.7996 33.3902 35.9962 33.9182 37.1001C34.432 38.2699 35.0115 39.4096 35.6541 40.5136C35.0813 41.1405 34.5568 41.8095 34.0847 42.5152C33.8328 42.947 33.5146 43.3363 33.1419 43.6693C32.9584 43.6415 32.6187 43.2504 32.0419 41.5356C31.6213 40.2339 31.4893 38.8556 31.6562 37.498C31.8943 36.2786 31.6602 35.0144 31.002 33.961C29.8318 32.3246 27.789 32.0364 25.8013 31.7545C24.2561 31.5432 22.6854 31.6139 21.1657 31.9625C19.9933 32.1867 19.4492 32.2704 18.8267 31.8824C17.6896 31.1029 17.1213 29.7242 17.3786 28.3697C17.6234 27.6367 18.3569 27.3718 19.8533 26.8804C21.8074 26.3197 23.6493 25.4247 25.2978 24.2349C26.6331 23.2553 30.1553 20.6559 30.2614 17.1095C30.32 15.1692 29.3494 13.9722 28.411 12.815C27.5438 11.886 26.9128 10.7623 26.5709 9.53846C26.0841 7.49657 26.6873 5.10207 28.3233 2.41848H28.4285C33.4739 2.42564 38.4061 3.91667 42.6107 6.70586C42.1252 7.24688 41.5376 7.68631 40.8812 7.9991C40.2421 8.27565 39.5436 8.38484 38.8505 8.31682C37.8866 8.19779 36.9137 8.44793 36.1266 9.01714C34.0485 10.5816 33.1172 14.5709 34.9851 17.5668C36.3145 19.6902 38.5855 20.1851 41.0655 20.7257C42.4004 21.0076 43.78 21.0018 45.1126 20.7082C46.1821 20.4531 47.2972 20.4563 48.3649 20.7185C49.5665 21.0649 50.6941 21.6296 51.692 22.3836C52.7284 23.2432 53.5142 24.3655 53.9675 25.6333C54.0427 26.4428 54.0892 27.2545 54.0892 28.0792C54.0892 28.4891 54.0812 28.904 54.0534 29.3286H54.057Z" fill="#6F7D9B"/>
<path d="M13.7652 11.5826C15.7896 11.5826 17.431 9.94168 17.431 7.9168C17.431 5.89236 15.7896 4.25098 13.7652 4.25098C11.7408 4.25098 10.0994 5.89236 10.0994 7.9168C10.0994 9.94168 11.7408 11.5826 13.7652 11.5826ZM13.7652 6.08389C14.7774 6.08389 15.5981 6.90458 15.5981 7.9168C15.5981 8.92902 14.7774 9.74971 13.7652 9.74971C12.753 9.74971 11.9323 8.92902 11.9323 7.9168C11.9323 6.90458 12.753 6.08389 13.7652 6.08389Z" fill="#00AEFF"/>
<path d="M37.5931 32.6611C37.5931 34.6859 39.2345 36.3269 41.2589 36.3269C43.2833 36.3269 44.9247 34.6859 44.9247 32.6611C44.9247 30.6366 43.2833 28.9952 41.2589 28.9952C39.2345 28.9952 37.5931 30.6366 37.5931 32.6611ZM43.0918 32.6611C43.0918 33.6733 42.2711 34.494 41.2589 34.494C40.2467 34.494 39.426 33.6733 39.426 32.6611C39.426 31.6488 40.2467 30.8282 41.2589 30.8282C42.2711 30.8282 43.0918 31.6488 43.0918 32.6611Z" fill="#00AEFF"/>
<path d="M20.931 8.94932C20.931 12.0498 16.9446 18.2508 13.8442 22.6801C10.7437 18.6937 6.31439 12.4042 6.31439 8.50639C6.31439 4.07712 10.3007 1.41956 13.8442 1.41956C17.3876 1.41956 20.931 4.52005 20.931 8.94932Z" stroke="#00AEFF" stroke-width="2.4"/>
<path d="M48.3925 33.7532C48.3925 36.8537 44.4061 43.0547 41.3056 47.484C38.2052 43.4976 33.7759 37.208 33.7759 33.3103C33.7759 28.881 37.7622 26.2234 41.3056 26.2234C44.8491 26.2234 48.3925 29.3239 48.3925 33.7532Z" stroke="#00AEFF" stroke-width="2.5"/>
</svg>
