<svg width="62" height="53" viewBox="0 0 62 53" fill="none" xmlns="http://www.w3.org/2000/svg">
<path d="M59.8809 0.162354H2.11914C0.950707 0.162354 0 1.09773 0 2.24731V9.58578C0 10.7411 1.81641 10.7411 1.81641 9.58578V2.24731C1.81641 2.08314 1.95215 1.94946 2.11914 1.94946H59.8809C60.0478 1.94946 60.1836 2.08314 60.1836 2.24731V45.8217C60.1836 45.9859 60.0478 46.1195 59.8809 46.1195H48.2423V44.2602H57.3769C57.8786 44.2602 58.2851 43.8601 58.2851 43.3667V34.0095C58.2851 32.8542 56.4687 32.8542 56.4687 34.0095V42.4731H48.2423V38.5085C48.2718 38.511 48.3016 38.5135 48.3296 38.516C49.0835 38.5812 50.0213 38.6623 50.671 38.0219C51.3199 37.3822 51.2378 36.4587 51.1718 35.7165C51.1007 34.9201 51.1772 34.702 51.7994 34.1932C53.4014 32.8827 53.4312 31.4794 51.7994 30.1448C51.1772 29.6356 51.1011 29.4178 51.1718 28.6212C51.3496 26.6224 50.4007 25.6428 48.3296 25.8219C47.5213 25.8917 47.302 25.8162 46.7866 25.2039C45.4567 23.6241 44.0294 23.5949 42.6748 25.2039C42.1594 25.8161 41.9402 25.892 41.1319 25.8219C39.0989 25.6462 38.1082 26.585 38.2896 28.6212C38.3603 29.4179 38.2842 29.6356 37.662 30.1448C36.06 31.4552 36.0304 32.8587 37.662 34.1932C38.2842 34.7024 38.3603 34.9202 38.2896 35.7168C38.0989 37.8576 39.1381 38.6854 41.2189 38.5086V42.4734H5.53144V5.59576H56.4687V29.2439C56.4687 30.3992 58.2851 30.3992 58.2851 29.2439V4.70221C58.2851 4.20873 57.8786 3.80865 57.3769 3.80865H4.62324C4.12155 3.80865 3.71504 4.20873 3.71504 4.70221V43.3667C3.71504 43.8601 4.12155 44.2602 4.62324 44.2602H41.2189V46.1195H2.11914C1.95215 46.1195 1.81641 45.9859 1.81641 45.8217V14.113C1.81641 12.9577 0 12.9577 0 14.113V45.8217C0 46.9713 0.950707 47.9066 2.11914 47.9066H41.2189V51.9515C41.3482 52.6858 41.7787 52.9559 42.5101 52.7616L44.7306 51.7455L46.9511 52.7616C47.5005 53.013 48.2423 52.6157 48.2423 51.9515V47.9066H59.8809C61.0493 47.9066 62 46.9713 62 45.8217V24.0345V2.24731C62 1.09761 61.0493 0.162354 59.8809 0.162354ZM40.9727 36.7355C40.0635 36.8143 40.0194 36.7664 40.0989 35.8724C40.2209 34.5002 39.9002 33.6996 38.823 32.8187C38.086 32.2157 38.0862 32.1217 38.823 31.5187C39.9002 30.6378 40.2211 29.8372 40.0989 28.4652C40.0194 27.571 40.0635 27.5236 40.9727 27.6019C42.3674 27.7228 43.1801 27.4048 44.0734 26.3436C44.6838 25.6188 44.7772 25.6188 45.3876 26.3436C46.2812 27.4048 47.0936 27.7223 48.4884 27.6019C49.3977 27.5231 49.4416 27.571 49.3622 28.465C49.2401 29.8372 49.5609 30.6377 50.638 31.5186C51.3749 32.1216 51.3752 32.2158 50.6379 32.8187C49.5608 33.6997 49.2399 34.5 49.3621 35.8721C49.4419 36.7662 49.3975 36.8142 48.4885 36.7355C47.918 36.6862 47.2709 36.6302 46.7013 36.863C46.1499 37.0883 45.7623 37.5486 45.3875 37.9938C45.211 38.2035 44.8887 38.5863 44.7303 38.6548C44.5721 38.5863 44.2498 38.2035 44.0733 37.9938C43.6985 37.5487 43.311 37.0883 42.7595 36.863C42.1717 36.6867 41.5761 36.6442 40.9727 36.7355ZM45.1136 49.9499C44.8707 49.8387 44.5905 49.8387 44.3476 49.9499L43.0353 50.5505V39.548C43.4662 40.0142 43.998 40.447 44.7306 40.447C45.4632 40.447 45.9949 40.0143 46.4259 39.5481V50.5505L45.1136 49.9499Z" fill="#6F7D9B"/>
<path d="M11.7778 13.0755H43.0863C44.2605 13.0755 44.2605 11.2884 43.0863 11.2884H11.7778C10.6035 11.2884 10.6035 13.0755 11.7778 13.0755Z" fill="#00AEFF"/>
<path d="M51.1302 17.6167C51.1302 17.1232 50.7237 16.7231 50.222 16.7231H11.7779C10.6037 16.7231 10.6037 18.5103 11.7779 18.5103H50.2222C50.7237 18.5103 51.1302 18.1102 51.1302 17.6167Z" fill="#00AEFF"/>
<path d="M34.5283 23.0517C34.5283 22.5582 34.1218 22.1581 33.6201 22.1581H11.7779C10.6037 22.1581 10.6037 23.9453 11.7779 23.9453H33.6201C34.1217 23.9453 34.5283 23.5452 34.5283 23.0517Z" fill="#00AEFF"/>
<path d="M22.6024 35.5067C22.1073 35.5076 21.612 35.5082 21.1168 35.5085C20.1642 35.5092 19.6397 35.2594 19.4451 34.2655C19.2675 33.3583 17.9374 33.4738 17.6936 34.2655C17.5858 34.6161 17.0408 35.6199 16.5648 35.5378C16.3126 35.4943 16.2024 35.1115 16.1091 34.9133C15.9276 34.5274 15.7954 34.1184 15.6822 33.7085C15.2041 31.9769 15.1087 30.169 14.8096 28.4048C14.6361 27.3817 13.0512 27.671 13.0256 28.6423C12.9442 31.7365 12.4301 34.7883 11.3104 37.6885C10.895 38.7647 12.6502 39.2301 13.0619 38.1637C13.4936 37.0454 13.8363 35.9004 14.1022 34.7383C14.2449 35.1617 14.415 35.577 14.6227 35.981C15.1531 37.0123 16.2348 37.6224 17.3922 37.1637C17.8053 37 18.1821 36.7139 18.5029 36.3656C19.3622 37.3405 20.6406 37.2963 21.8332 37.2949C23.6311 37.2926 25.429 37.2885 27.227 37.2836C28.3957 37.2804 28.3979 35.4933 27.227 35.4965C25.6855 35.5008 24.1439 35.5042 22.6024 35.5067Z" fill="#00AEFF"/>
<path d="M44.7306 35.659C46.6866 35.659 48.278 34.0934 48.278 32.1689C48.278 30.2444 46.6866 28.6788 44.7306 28.6788C42.7747 28.6788 41.1833 30.2445 41.1833 32.1689C41.1833 34.0932 42.7746 35.659 44.7306 35.659ZM44.7306 30.4659C45.685 30.4659 46.4616 31.2299 46.4616 32.1689C46.4616 33.1078 45.685 33.8719 44.7306 33.8719C43.7761 33.8719 42.9997 33.1079 42.9997 32.1689C42.9997 31.2298 43.7761 30.4659 44.7306 30.4659Z" fill="#6F7D9B"/>
</svg>
