<svg width="60" height="61" viewBox="0 0 60 61" fill="none" xmlns="http://www.w3.org/2000/svg">
<path d="M59.9055 45.4188V0.00537109H3.05176e-05V45.4188H28.0866C28.4292 45.9503 28.8189 46.4581 29.2323 46.9306L24.4725 55.1747L29.8583 55.4936L32.8347 60.0054L37.9252 51.1825C38.9055 51.3006 40.2992 51.1353 41.1024 50.9699L46.3229 60.0054L49.2992 55.4936L54.6969 55.1747L49.1457 45.5487C49.1693 45.5014 49.1929 45.4542 49.2284 45.4188H59.9055ZM1.93704 43.4818V1.94238H57.9803V43.4936H50.2441C50.6221 42.5723 50.8937 41.6038 51.0473 40.5999H55.0748V4.83608H4.83074V40.5881H26.2559C26.4095 41.592 26.6811 42.5723 27.0591 43.4818H1.93704ZM26.0906 38.651H6.76775V6.76128H53.1496V38.651H51.2126C51.2126 31.7298 45.5788 26.0959 38.6575 26.0959C31.7363 26.0959 26.0906 31.7298 26.0906 38.651ZM32.7284 56.3321L30.9449 53.6274L27.7087 53.4384L30.6496 48.3361C32.1378 49.5644 33.9213 50.4503 35.8701 50.8991L32.7284 56.3321ZM28.0158 38.651C28.0158 32.7928 32.7874 28.0211 38.6457 28.0211C44.504 28.0211 49.2756 32.7928 49.2756 38.651C49.2756 44.5093 44.504 49.281 38.6457 49.281C32.7874 49.281 28.0158 44.5093 28.0158 38.651ZM51.4607 53.4266L48.2244 53.6156L46.441 56.3203L43.0276 50.403C44.8819 49.7062 46.5355 48.5959 47.8583 47.1668L51.4607 53.4266Z" fill="#1A77B5"/>
<path d="M38.6457 30.9268C34.3819 30.9268 30.9213 34.3992 30.9213 38.6512C30.9213 42.9031 34.3937 46.3756 38.6457 46.3756C42.8977 46.3756 46.3701 42.9031 46.3701 38.6512C46.3701 34.3992 42.9095 30.9268 38.6457 30.9268ZM38.6457 44.4504C35.4449 44.4504 32.8465 41.852 32.8465 38.6512C32.8465 35.4504 35.4449 32.852 38.6457 32.852C41.8465 32.852 44.4449 35.4504 44.4449 38.6512C44.4449 41.852 41.8465 44.4504 38.6457 44.4504Z" fill="#1A77B5"/>
<path d="M49.2756 19.3281H10.63V21.2651H49.2756V19.3281Z" fill="#1A77B5"/>
<path d="M49.2756 11.604H10.63V13.541H49.2756V11.604Z" fill="#1A77B5"/>
<path d="M28.0276 27.0645H10.63V29.0015H28.0276V27.0645Z" fill="#1A77B5"/>
<path d="M12.567 32.8521H10.63V34.7891H12.567V32.8521Z" fill="#1A77B5"/>
<path d="M16.4292 32.8521H14.4921V34.7891H16.4292V32.8521Z" fill="#1A77B5"/>
<path d="M20.2914 32.8521H18.3544V34.7891H20.2914V32.8521Z" fill="#1A77B5"/>
</svg>
