<svg width="51" height="61" viewBox="0 0 51 61" fill="none" xmlns="http://www.w3.org/2000/svg">
<path d="M44.1853 38.4481C48.1704 34.1976 50.357 28.6802 50.357 22.8416C50.357 10.2497 40.124 0.00537109 27.5462 0.00537109C14.9684 0.00537109 4.73467 10.2497 4.73467 22.8416C4.73467 23.5517 4.77067 24.2843 4.84054 25.0226C3.62582 27.481 1.77021 31.1343 0.8604 32.9236C0.543485 33.5476 0.345854 33.9386 0.330326 33.9718C0.110815 34.4609 0 34.986 0 35.5309C0 37.6364 1.71092 39.3501 3.81286 39.3501H5.51813L5.50261 46.1635C5.50261 48.8639 7.69772 51.0612 10.3975 51.0612L17.5588 51.0576L19.996 59.248C20.0758 59.5184 20.2607 59.7449 20.5098 59.879C20.6651 59.9623 20.8373 60.0054 21.011 60.0054C21.114 60.0054 21.2178 59.9906 21.3194 59.9602L47.2182 52.0832C47.7772 51.9131 48.0928 51.3216 47.9234 50.7626L44.1853 38.4481ZM21.7232 57.6246L19.3636 49.6975C19.2309 49.2486 18.8173 48.9409 18.3486 48.9409C18.3479 48.9409 18.3479 48.9409 18.3479 48.9409L10.3968 48.9451C8.86586 48.9451 7.62008 47.6972 7.62008 46.167L7.63843 38.2949C7.63914 38.014 7.52832 37.7437 7.32928 37.5446C7.13024 37.3456 6.86061 37.2341 6.57899 37.2341H3.81216C2.87765 37.2341 2.11677 36.4704 2.11677 35.5323C2.11677 35.2874 2.16547 35.0538 2.25017 34.8632C2.27911 34.8039 2.46333 34.4425 2.74707 33.8835C3.69217 32.023 5.6593 28.1522 6.87261 25.6868C6.96084 25.5068 6.99684 25.3056 6.97566 25.1059C6.89308 24.338 6.85073 23.5764 6.85073 22.843C6.85073 11.4178 16.1337 2.12426 27.5441 2.12426C38.9544 2.12426 48.2396 11.4171 48.2396 22.8416C48.2396 28.3308 46.108 33.5073 42.2401 37.4169C41.9655 37.6929 41.8667 38.0966 41.9789 38.4686L45.5899 50.3645L21.7232 57.6246Z" fill="#1A77B5"/>
<path d="M39.4831 11.6082C39.4224 11.316 39.2417 11.0633 38.9841 10.9116C38.7279 10.7598 38.4187 10.7238 38.1336 10.812L31.8765 12.7467C31.3181 12.9189 31.0055 13.5118 31.1777 14.0708C31.3513 14.6291 31.9414 14.9425 32.5025 14.7689L36.1474 13.6417L31.803 20.9964C31.412 20.8884 31.0012 20.8256 30.5756 20.8256C29.0666 20.8256 27.7319 21.5575 26.8962 22.6819L23.8519 21.5406C23.8611 21.4206 23.8696 21.3006 23.8696 21.1785C23.8696 18.6446 21.8163 16.5906 19.2817 16.5906C16.7471 16.5906 14.6939 18.6446 14.6939 21.1785C14.6939 22.0262 14.9275 22.8167 15.3277 23.4985L11.061 28.6186C10.6869 29.0675 10.7476 29.7352 11.1958 30.1093C11.3941 30.2737 11.6341 30.3549 11.8734 30.3549C12.1776 30.3549 12.4776 30.225 12.6872 29.9737L16.8022 25.0358C17.5179 25.496 18.367 25.7663 19.281 25.7663C20.9432 25.7663 22.3944 24.8798 23.199 23.5571L26.0583 24.6292C26.0139 24.8848 25.9863 25.1452 25.9863 25.4134C25.9863 27.948 28.0403 30.0013 30.5742 30.0013C33.1088 30.0013 35.1621 27.948 35.1621 25.4134C35.1621 24.0674 34.5791 22.8612 33.6558 22.0212L37.9663 14.7237L38.7406 18.4505C38.8436 18.9509 39.2848 19.2939 39.776 19.2939C39.848 19.2939 39.9193 19.2869 39.9927 19.272C40.5651 19.1528 40.9329 18.5923 40.8143 18.0206L39.4831 11.6082ZM19.2817 23.6496C17.9195 23.6496 16.8113 22.5414 16.8113 21.1792C16.8113 19.8169 17.9195 18.7088 19.2817 18.7088C20.644 18.7088 21.7521 19.8169 21.7521 21.1792C21.7521 22.5414 20.6433 23.6496 19.2817 23.6496ZM30.5749 27.8845C29.2127 27.8845 28.1045 26.7764 28.1045 25.4141C28.1045 24.0519 29.2127 22.9437 30.5749 22.9437C31.9372 22.9437 33.0453 24.0519 33.0453 25.4141C33.0453 26.7764 31.9364 27.8845 30.5749 27.8845Z" fill="#1A77B5"/>
</svg>
