<svg width="56" height="56" viewBox="0 0 56 56" fill="none" xmlns="http://www.w3.org/2000/svg">
<path d="M27.125 49H28.875V50.75H27.125V49Z" fill="#6F7D9B"/>
<path d="M42.222 43.4683L43.4594 42.2308L44.6969 43.4683L43.4594 44.7057L42.222 43.4683Z" fill="#6F7D9B"/>
<path d="M49 27.125H50.75V28.875H49V27.125Z" fill="#6F7D9B"/>
<path d="M53.375 21.875H47.1713C46.8327 20.8074 46.4039 19.7706 45.8894 18.7757L50.274 14.3902C50.4381 14.2262 50.5302 14.0036 50.5302 13.7716C50.5302 13.5396 50.4381 13.3171 50.274 13.153L46.5614 9.44124C44.1325 6.96567 41.2371 4.99595 38.0425 3.64588C34.8479 2.29582 31.4175 1.59218 27.9494 1.57562C24.4813 1.55905 21.0443 2.2299 17.837 3.54938C14.6296 4.86887 11.7156 6.81085 9.26314 9.26311C6.81071 11.7154 4.86852 14.6293 3.54881 17.8365C2.22909 21.0438 1.55801 24.4807 1.57433 27.9488C1.59064 31.4169 2.29404 34.8474 3.64388 38.0421C4.99372 41.2368 6.96323 44.1323 9.43863 46.5614L13.1504 50.274C13.3145 50.438 13.537 50.5302 13.769 50.5302C14.001 50.5302 14.2235 50.438 14.3876 50.274L18.7731 45.8894C19.7689 46.4037 20.8066 46.8322 21.875 47.1704V53.375C21.875 53.6071 21.9672 53.8296 22.1313 53.9937C22.2954 54.1578 22.5179 54.25 22.75 54.25H33.25C33.4821 54.25 33.7046 54.1578 33.8687 53.9937C34.0328 53.8296 34.125 53.6071 34.125 53.375V47.1712C35.1926 46.8329 36.2294 46.4044 37.2243 45.8902L41.6098 50.2749C41.7739 50.4389 41.9964 50.5311 42.2284 50.5311C42.4604 50.5311 42.6829 50.4389 42.847 50.2749L50.2714 42.8505C50.4354 42.6864 50.5276 42.4639 50.5276 42.2319C50.5276 41.9999 50.4354 41.7773 50.2714 41.6132L45.8868 37.2277C46.402 36.2318 46.8314 35.1938 47.1704 34.125H53.375C53.6071 34.125 53.8296 34.0328 53.9937 33.8687C54.1578 33.7046 54.25 33.4821 54.25 33.25V22.75C54.25 22.5179 54.1578 22.2954 53.9937 22.1313C53.8296 21.9672 53.6071 21.875 53.375 21.875ZM10.675 10.675C15.1617 6.1869 21.2153 3.61566 27.5604 3.50303C33.9056 3.39041 40.0466 5.7452 44.6898 10.0712L43.4543 11.3067C39.1362 7.32182 33.4439 5.16211 27.5693 5.2799C21.6947 5.39769 16.0935 7.78384 11.9387 11.9386C7.78386 16.0935 5.3977 21.6947 5.27992 27.5693C5.16213 33.4439 7.32184 39.1362 11.3068 43.4542L10.0713 44.6898C5.74522 40.0466 3.39043 33.9055 3.50305 27.5604C3.61567 21.2153 6.18692 15.1617 10.675 10.675ZM35.4244 20.5756C37.367 22.5502 38.4507 25.2123 38.4395 27.9823C38.4282 30.7522 37.3228 33.4055 35.3642 35.3642C33.4055 37.3228 30.7522 38.4282 27.9823 38.4394C25.2124 38.4507 22.5502 37.367 20.5756 35.4244C20.4115 35.2603 20.189 35.1682 19.957 35.1682C19.725 35.1682 19.5025 35.2603 19.3384 35.4244L12.5449 42.2179C8.8751 38.2307 6.88868 32.9792 7.00093 27.5614C7.11317 22.1436 9.3154 16.9789 13.1472 13.1472C16.979 9.31538 22.1436 7.11315 27.5614 7.00091C32.9792 6.88866 38.2307 8.87508 42.2179 12.5449L35.4244 19.3375C35.343 19.4188 35.2785 19.5153 35.2345 19.6215C35.1904 19.7277 35.1678 19.8416 35.1678 19.9566C35.1678 20.0715 35.1904 20.1854 35.2345 20.2916C35.2785 20.3979 35.343 20.4944 35.4244 20.5756ZM52.5 32.375H46.5185C46.3272 32.3749 46.1412 32.4375 45.9888 32.5531C45.8365 32.6688 45.7263 32.8312 45.675 33.0155C45.2907 34.3881 44.744 35.7099 44.0466 36.953C43.9526 37.1198 43.9159 37.3128 43.9422 37.5025C43.9684 37.6922 44.0561 37.868 44.1919 38.003L48.4173 42.2293L42.231 48.4155L38.0048 44.1901C37.8697 44.0544 37.6939 43.9666 37.5043 43.9404C37.3146 43.9142 37.1216 43.9509 36.9548 44.0449C35.7117 44.7423 34.3898 45.2889 33.0173 45.6733C32.833 45.7245 32.6706 45.8348 32.5549 45.9871C32.4392 46.1394 32.3767 46.3255 32.3768 46.5167V52.5H23.625V46.5185C23.6251 46.3272 23.5626 46.1412 23.4469 45.9888C23.3312 45.8365 23.1688 45.7263 22.9845 45.675C21.6119 45.2907 20.2901 44.744 19.047 44.0466C18.8802 43.9526 18.6872 43.9159 18.4975 43.9422C18.3078 43.9684 18.132 44.0561 17.997 44.1919L13.7708 48.4173L11.2963 45.9427L19.9806 37.2593C22.3219 39.2862 25.344 40.3512 28.4389 40.2399C31.5337 40.1286 34.4715 38.8493 36.6612 36.6594C38.8508 34.4696 40.1298 31.5316 40.2408 28.4368C40.3518 25.342 39.2865 22.32 37.2593 19.9789L45.9428 11.2945L48.4173 13.769L44.1919 17.9952C44.0561 18.1303 43.9684 18.3061 43.9422 18.4957C43.9159 18.6854 43.9526 18.8784 44.0466 19.0452C44.7441 20.2883 45.2908 21.6101 45.675 22.9827C45.7263 23.167 45.8365 23.3294 45.9888 23.4451C46.1412 23.5608 46.3272 23.6234 46.5185 23.6232H52.5V32.375Z" fill="#6F7D9B"/>
<path d="M28.875 24.6243V14.875C28.875 14.6429 28.7828 14.4204 28.6187 14.2563C28.4546 14.0922 28.2321 14 28 14C27.7679 14 27.5454 14.0922 27.3813 14.2563C27.2172 14.4204 27.125 14.6429 27.125 14.875V24.6243C26.5237 24.7815 25.975 25.096 25.5355 25.5355C25.096 25.975 24.7815 26.5237 24.6243 27.125H18.375C18.1429 27.125 17.9204 27.2172 17.7563 27.3813C17.5922 27.5454 17.5 27.7679 17.5 28C17.5 28.2321 17.5922 28.4546 17.7563 28.6187C17.9204 28.7828 18.1429 28.875 18.375 28.875H24.6243C24.7773 29.4721 25.0855 30.0181 25.5178 30.4575C25.9501 30.8969 26.4909 31.2141 27.0854 31.3769C27.6799 31.5397 28.3069 31.5423 28.9027 31.3844C29.4986 31.2265 30.042 30.9137 30.4778 30.4778C30.9137 30.042 31.2265 29.4986 31.3844 28.9027C31.5423 28.3069 31.5397 27.6799 31.3769 27.0854C31.2141 26.4909 30.8969 25.9501 30.4575 25.5178C30.0181 25.0855 29.4721 24.7773 28.875 24.6243ZM28 29.75C27.6539 29.75 27.3155 29.6474 27.0278 29.4551C26.74 29.2628 26.5157 28.9895 26.3832 28.6697C26.2508 28.3499 26.2161 27.9981 26.2836 27.6586C26.3511 27.3191 26.5178 27.0073 26.7626 26.7626C27.0073 26.5178 27.3191 26.3511 27.6586 26.2836C27.9981 26.2161 28.3499 26.2508 28.6697 26.3832C28.9895 26.5157 29.2628 26.74 29.4551 27.0278C29.6474 27.3155 29.75 27.6539 29.75 28C29.75 28.4641 29.5656 28.9092 29.2374 29.2374C28.9092 29.5656 28.4641 29.75 28 29.75Z" fill="#00AEFF"/>
<path d="M28 11.375C27.7679 11.375 27.5454 11.2828 27.3813 11.1187C27.2172 10.9546 27.125 10.7321 27.125 10.5V8.75C27.125 8.51794 27.2172 8.29538 27.3813 8.13128C27.5454 7.96719 27.7679 7.875 28 7.875C28.2321 7.875 28.4546 7.96719 28.6187 8.13128C28.7828 8.29538 28.875 8.51794 28.875 8.75V10.5C28.875 10.7321 28.7828 10.9546 28.6187 11.1187C28.4546 11.2828 28.2321 11.375 28 11.375Z" fill="#00AEFF"/>
<path d="M36.7501 13.7199C36.5966 13.7198 36.4458 13.6792 36.3129 13.6023C36.18 13.5255 36.0697 13.415 35.993 13.282C35.9163 13.149 35.8759 12.9982 35.876 12.8447C35.876 12.6912 35.9164 12.5404 35.9932 12.4074L36.8682 10.891C36.9851 10.6917 37.176 10.5467 37.3994 10.4876C37.6228 10.4286 37.8605 10.4603 38.0606 10.5758C38.2607 10.6913 38.4069 10.8813 38.4675 11.1043C38.528 11.3273 38.4979 11.5652 38.3837 11.766L37.5087 13.2824C37.4318 13.4156 37.3212 13.5261 37.1881 13.6029C37.0549 13.6797 36.9038 13.7201 36.7501 13.7199Z" fill="#00AEFF"/>
<path d="M19.25 13.7199C19.0962 13.7201 18.9452 13.6797 18.812 13.6029C18.6788 13.5261 18.5682 13.4156 18.4913 13.2824L17.6163 11.766C17.5021 11.5652 17.472 11.3273 17.5326 11.1043C17.5931 10.8813 17.7394 10.6913 17.9395 10.5758C18.1396 10.4603 18.3773 10.4286 18.6006 10.4876C18.824 10.5467 19.015 10.6917 19.1318 10.891L20.0068 12.4074C20.0836 12.5404 20.124 12.6912 20.1241 12.8447C20.1241 12.9982 20.0837 13.149 20.0071 13.282C19.9304 13.415 19.82 13.5255 19.6871 13.6023C19.5543 13.6792 19.4035 13.7198 19.25 13.7199Z" fill="#00AEFF"/>
<path d="M12.8441 20.125C12.6905 20.1253 12.5395 20.0848 12.4066 20.0077L10.8903 19.1327C10.6909 19.0159 10.5459 18.8249 10.4869 18.6015C10.4278 18.3781 10.4595 18.1405 10.575 17.9404C10.6906 17.7403 10.8806 17.594 11.1035 17.5334C11.3265 17.4729 11.5644 17.503 11.7653 17.6172L13.2816 18.4922C13.4484 18.5885 13.5788 18.7372 13.6525 18.9151C13.7262 19.0931 13.7391 19.2904 13.6893 19.4764C13.6394 19.6625 13.5296 19.8269 13.3768 19.9441C13.224 20.0614 13.0368 20.125 12.8441 20.125Z" fill="#00AEFF"/>
<path d="M10.5 28.875H8.75C8.51794 28.875 8.29538 28.7828 8.13128 28.6187C7.96719 28.4546 7.875 28.2321 7.875 28C7.875 27.7679 7.96719 27.5454 8.13128 27.3813C8.29538 27.2172 8.51794 27.125 8.75 27.125H10.5C10.7321 27.125 10.9546 27.2172 11.1187 27.3813C11.2828 27.5454 11.375 27.7679 11.375 28C11.375 28.2321 11.2828 28.4546 11.1187 28.6187C10.9546 28.7828 10.7321 28.875 10.5 28.875Z" fill="#00AEFF"/>
<path d="M11.3295 38.5C11.1369 38.5 10.9497 38.4364 10.7969 38.3191C10.6441 38.2019 10.5342 38.0375 10.4844 37.8514C10.4345 37.6654 10.4475 37.4681 10.5212 37.2901C10.5949 37.1122 10.7252 36.9635 10.892 36.8672L12.4084 35.9922C12.5079 35.9339 12.6181 35.8958 12.7324 35.8801C12.8467 35.8645 12.963 35.8716 13.0746 35.9011C13.1861 35.9306 13.2908 35.9819 13.3824 36.052C13.4741 36.1221 13.551 36.2096 13.6087 36.3096C13.6664 36.4095 13.7038 36.5199 13.7186 36.6343C13.7335 36.7487 13.7256 36.865 13.6954 36.9763C13.6651 37.0877 13.6132 37.192 13.5425 37.2832C13.4718 37.3744 13.3837 37.4507 13.2834 37.5077L11.767 38.3827C11.6341 38.4598 11.4832 38.5003 11.3295 38.5Z" fill="#00AEFF"/>
<path d="M28.0001 36.7501C26.8505 36.7533 25.7118 36.528 24.6501 36.0872C23.5884 35.6465 22.6249 34.9992 21.8156 34.1828C21.7321 34.102 21.6656 34.0054 21.6199 33.8985C21.5742 33.7917 21.5502 33.6769 21.5494 33.5607C21.5486 33.4445 21.5709 33.3293 21.615 33.2219C21.6592 33.1144 21.7243 33.0168 21.8065 32.9348C21.8888 32.8527 21.9866 32.7879 22.0942 32.744C22.2018 32.7002 22.317 32.6782 22.4332 32.6794C22.5494 32.6806 22.6641 32.7049 22.7708 32.7509C22.8775 32.7969 22.974 32.8637 23.0546 32.9473C23.7016 33.6083 24.4733 34.1343 25.325 34.4951C26.1767 34.8558 27.0914 35.0441 28.0163 35.049C28.9413 35.0539 29.858 34.8754 30.7134 34.5237C31.5689 34.172 32.3461 33.6542 33.0001 33.0001C33.6542 32.3461 34.172 31.5689 34.5237 30.7134C34.8754 29.858 35.0539 28.9413 35.049 28.0163C35.0441 27.0914 34.8558 26.1767 34.4951 25.325C34.1343 24.4733 33.6083 23.7016 32.9473 23.0546C32.8637 22.974 32.7969 22.8775 32.7509 22.7708C32.7049 22.6641 32.6806 22.5494 32.6794 22.4332C32.6782 22.317 32.7002 22.2018 32.744 22.0942C32.7879 21.9866 32.8527 21.8888 32.9348 21.8065C33.0168 21.7243 33.1144 21.6592 33.2219 21.615C33.3293 21.5709 33.4445 21.5486 33.5607 21.5494C33.6769 21.5502 33.7917 21.5742 33.8985 21.6199C34.0054 21.6656 34.102 21.7321 34.1828 21.8156C35.4054 23.0392 36.2378 24.5976 36.575 26.2941C36.9123 27.9906 36.7392 29.7489 36.0775 31.347C35.4159 32.9452 34.2955 34.3113 32.8579 35.273C31.4202 36.2347 29.7297 36.7487 28.0001 36.7501Z" fill="#00AEFF"/>
</svg>
