<svg width="46" height="65" viewBox="0 0 46 65" fill="none" xmlns="http://www.w3.org/2000/svg">
<path d="M0 22.4813C0 36.5179 12.3211 39.222 13.174 60.6357C13.2259 61.8515 13.9561 63.0956 15.1835 63.6552C16.5462 64.2868 17.1252 63.8415 28.5124 63.9844C30.3533 63.9844 31.8686 62.5546 31.9487 60.7433C32.0161 59.3632 32.1718 57.9834 32.3713 56.6064C32.7031 54.3305 33.1918 52.0625 33.8761 49.8289C38.2612 35.4409 48.6866 30.6523 44.1297 15.8561C36.4504 -8.80516 0 -3.22629 0 22.4813ZM28.8701 61.3404C28.7608 61.3864 28.6424 61.4158 28.5149 61.4158C13.5739 61.3836 16.0585 62.5899 15.4956 57.3633H23.0286C23.7361 57.3633 24.3098 56.7897 24.3098 56.0821C24.3098 55.3746 23.7361 54.8009 23.0286 54.8009H15.1559C15.0678 54.2594 14.5767 51.7774 14.3156 50.7453H30.9453C29.2328 57.1291 29.8093 60.9222 28.8701 61.3404ZM21.2895 2.55366V9.42184C20.6252 9.2473 20.3532 9.14938 19.4835 8.90003C14.7094 7.53423 12.0215 11.9134 13.5705 15.2419C15.4829 19.3596 19.5443 17.4878 21.2895 17.0219V24.0334H14.7948C14.4182 24.0334 14.0604 24.1991 13.817 24.4863C13.5737 24.774 13.4692 25.1538 13.5312 25.5254C13.7886 27.0709 14.0633 27.9282 14.4772 29.0132C14.6563 29.5067 14.741 29.777 14.741 30.0977C14.741 32.7627 10.5931 32.9433 10.5085 30.1652C10.4829 29.3746 11.0691 28.4709 11.6444 25.5635C11.7189 25.1875 11.6213 24.7978 11.3779 24.5013C10.7045 23.6807 10.3043 24.188 2.64178 24.0334C2.63029 23.9069 2.62505 23.7908 2.61621 23.6691C1.96399 12.4795 10.5206 3.24229 21.2895 2.55366ZM3.01277 26.5957H8.78119C8.22266 28.7215 7.63665 29.6026 8.1212 31.3469C9.4753 36.5463 17.3034 35.4493 17.3034 30.0977C17.3034 28.9336 16.7284 27.8968 16.3781 26.5957H21.2895V31.1374C21.2895 31.514 21.4553 31.8718 21.7424 32.1151C22.5541 32.7995 25.155 31.8801 26.1344 31.5059C26.8444 31.2346 27.0969 31.1912 27.3538 31.1912C30.3241 31.1912 30 35.8545 27.0783 35.4033C25.6814 35.1881 21.2895 33.0168 21.2895 35.5445V48.1617H13.5943C9.80793 36.0029 4.70641 34.7658 3.01277 26.5957ZM15.8894 14.1545C15.1693 12.5999 16.4697 10.9259 18.0617 11.1698C19.5397 11.3979 22.3256 12.885 23.384 12.0186C23.6805 11.7753 23.8519 11.4118 23.8519 11.0283V2.53396C34.6597 3.2045 43.4181 12.7554 42.4933 24.0334H36.5854C36.7312 23.4779 36.8701 23.03 36.992 22.6365C39.5426 14.4044 28.0632 13.7765 28.0632 20.5314C28.0632 21.8386 28.549 22.4028 28.9885 24.0334H23.8519V15.4355C23.8519 15.0589 23.6861 14.7011 23.3989 14.4577C21.6644 12.9946 17.3618 17.3189 15.8894 14.1545ZM31.711 48.1617H23.8519V37.151C24.4043 37.2961 24.8503 37.4344 25.2425 37.5558C28.8302 38.6682 31.2293 36.9926 31.8661 34.4967C32.6127 31.4458 30.3495 28.6288 27.3538 28.6288C26.1192 28.6288 25.3396 29.1562 23.8519 29.5553V26.5957H30.5718C33.3386 26.5957 30.6256 21.6646 30.6256 20.5314C30.6256 18.1226 34.2038 17.5875 34.8024 20.0721C35.1594 21.5708 32.1189 26.5957 34.979 26.5957H42.1211C41.5556 29.2694 40.4565 31.8061 38.9038 34.0037C35.6657 38.5828 33.2455 43.458 31.711 48.1617Z" fill="#1A77B5"/>
</svg>
