<svg width="64" height="64" viewBox="0 0 64 64" fill="none" xmlns="http://www.w3.org/2000/svg">
<path d="M62.3875 23.2757L59.1669 20.4924C58.7674 20.1469 58.1633 20.191 57.8179 20.5908C57.4725 20.9904 57.5164 21.5944 57.9163 21.9398L61.1367 24.723C62.2847 25.7152 62.4114 27.4563 61.4194 28.6043L40.5011 52.8088C40.1557 53.2084 40.1996 53.8124 40.5993 54.1579C40.7802 54.3143 41.0028 54.3908 41.2243 54.3908C41.4927 54.3908 41.7593 54.2785 41.9484 54.0598L62.8667 29.855C64.5485 27.909 64.3335 24.9574 62.3875 23.2757Z" fill="#6F7D9B"/>
<path d="M56.7178 18.3753L41.8198 5.50018C40.877 4.68543 39.6733 4.28706 38.4308 4.37706C37.188 4.46743 36.055 5.03656 35.2403 5.97918L33.8208 7.62168C33.4754 8.02143 33.5193 8.62543 33.919 8.97081C34.3189 9.31643 34.9228 9.27218 35.2681 8.87256L36.6876 7.23006C37.1683 6.67406 37.8366 6.33831 38.5698 6.28493C39.3029 6.23106 40.0128 6.46681 40.5689 6.94743L55.4669 19.8226C55.6478 19.9789 55.8704 20.0554 56.0919 20.0554C56.3603 20.0554 56.6269 19.9432 56.816 19.7244C57.1613 19.3247 57.1174 18.7207 56.7178 18.3753Z" fill="#6F7D9B"/>
<path d="M47.6375 14.9939L21.864 6.34917C19.4251 5.53117 16.776 6.8498 15.9581 9.2883L15.6181 10.3019C15.4501 10.8027 15.72 11.3449 16.2209 11.5129C16.7217 11.6809 17.2637 11.4112 17.4319 10.9102L17.7719 9.89655C18.2544 8.45792 19.817 7.68005 21.2557 8.16267L47.0294 16.8073C48.468 17.2899 49.2457 18.8527 48.7632 20.2912L36.7716 56.0437C36.6036 56.5444 36.8735 57.0865 37.3744 57.2547C37.4752 57.2884 37.5777 57.3046 37.6786 57.3046C38.0784 57.3046 38.4511 57.0519 38.5854 56.6521L50.577 20.8997C51.3947 18.4613 50.0762 15.8118 47.6375 14.9939Z" fill="#6F7D9B"/>
<path d="M31.8494 12.5961H4.66475C2.09263 12.5961 0 14.6886 0 17.2607V54.9706C0 57.5427 2.09263 59.6353 4.66475 59.6353H31.8495C34.4216 59.6353 36.5143 57.5427 36.5143 54.9706V17.2607C36.5141 14.6886 34.4216 12.5961 31.8494 12.5961ZM34.6011 54.9706C34.6011 56.4879 33.3666 57.7223 31.8494 57.7223H4.66475C3.14738 57.7223 1.913 56.4878 1.913 54.9706V17.2607C1.913 15.7433 3.1475 14.5089 4.66475 14.5089H31.8495C33.3669 14.5089 34.6012 15.7434 34.6012 17.2607V54.9706H34.6011Z" fill="#6F7D9B"/>
<path d="M32.3473 38.9949H4.16704C3.63879 38.9949 3.21054 39.4231 3.21054 39.9514C3.21054 40.4796 3.63879 40.9079 4.16704 40.9079H32.3474C32.8757 40.9079 33.3039 40.4796 33.3039 39.9514C33.3038 39.4231 32.8755 38.9949 32.3473 38.9949Z" fill="#6F7D9B"/>
<path d="M27.8883 44.465H16.0441C15.5158 44.465 15.0876 44.8932 15.0876 45.4215C15.0876 45.9497 15.5158 46.378 16.0441 46.378H27.8883C28.4166 46.378 28.8448 45.9497 28.8448 45.4215C28.8448 44.8932 28.4166 44.465 27.8883 44.465Z" fill="#6F7D9B"/>
<path d="M12.8556 44.465H8.62572C8.09747 44.465 7.66922 44.8932 7.66922 45.4215C7.66922 45.9497 8.09747 46.378 8.62572 46.378H12.8556C13.3838 46.378 13.8121 45.9497 13.8121 45.4215C13.8121 44.8932 13.3838 44.465 12.8556 44.465Z" fill="#6F7D9B"/>
<path d="M27.8882 48.1213H8.62572C8.09747 48.1213 7.66922 48.5495 7.66922 49.0778C7.66922 49.606 8.09747 50.0343 8.62572 50.0343H27.8882C28.4165 50.0343 28.8447 49.606 28.8447 49.0778C28.8447 48.5494 28.4165 48.1213 27.8882 48.1213Z" fill="#6F7D9B"/>
<path d="M27.8882 51.7775H8.62572C8.09747 51.7775 7.66922 52.2058 7.66922 52.734C7.66922 53.2623 8.09747 53.6905 8.62572 53.6905H27.8882C28.4165 53.6905 28.8447 53.2623 28.8447 52.734C28.8447 52.2058 28.4165 51.7775 27.8882 51.7775Z" fill="#6F7D9B"/>
<path d="M28.7696 23.694C28.6571 23.3478 28.3578 23.0954 27.9976 23.0431L21.8597 22.1513L19.1148 16.5894C18.9536 16.2629 18.6212 16.0562 18.2571 16.0562C17.8931 16.0562 17.5606 16.2629 17.3993 16.5894L14.6543 22.1513L8.51643 23.0431C8.15618 23.0954 7.85681 23.3478 7.74443 23.694C7.63193 24.0403 7.72581 24.4203 7.98643 24.6744L12.4279 29.0036L11.3794 35.1169C11.3179 35.4756 11.4654 35.8383 11.7599 36.0523C11.9266 36.1733 12.1239 36.2349 12.3222 36.2349C12.4743 36.2349 12.6272 36.1985 12.7672 36.1251L18.2571 33.2388L23.7469 36.1251C24.0692 36.2945 24.4597 36.2663 24.7542 36.0523C25.0488 35.8383 25.1962 35.4756 25.1347 35.1169L24.0862 29.0036L28.5276 24.6744C28.7882 24.4203 28.8821 24.0403 28.7696 23.694ZM22.3909 27.9849C22.1654 28.2046 22.0626 28.5213 22.1158 28.8315L22.9217 33.5301L18.7021 31.3116C18.4233 31.1653 18.0904 31.1653 17.8119 31.3116L13.5923 33.5301L14.3982 28.8315C14.4513 28.5213 14.3486 28.2046 14.1231 27.9849L10.7094 24.6574L15.4271 23.9718C15.7386 23.9265 16.0078 23.7309 16.1472 23.4485L18.2569 19.1735L20.3667 23.4485C20.5059 23.7308 20.7753 23.9265 21.0868 23.9718L25.8046 24.6574L22.3909 27.9849Z" fill="#00AEFF"/>
</svg>
