<svg width="85" height="37" viewBox="0 0 85 37" fill="none" xmlns="http://www.w3.org/2000/svg">
<path d="M6.49709 36.9995C5.54294 33.66 6.70913 28.6772 8.35239 25.8677C8.72345 25.2316 9.20053 24.2775 9.6246 23.7474L12.5401 20.1958C12.6991 20.0368 12.5931 20.1428 12.7521 19.9838C13.3352 19.2946 14.6604 18.2345 15.4555 17.5454L17.4169 16.0611C18.5831 15.319 19.9613 14.3648 21.1805 13.7818L22.9298 12.9336C23.1418 12.8276 23.3538 12.7746 23.5128 12.7216C23.7779 12.5626 23.8309 12.5626 24.0959 12.4565C24.308 12.4035 24.467 12.2975 24.679 12.1915C25.7922 11.7144 29.7149 10.6012 30.669 10.4422C30.9871 10.3892 33.4785 9.91213 33.5845 9.85912C31.1991 9.7531 28.0716 10.1242 25.8452 10.5482C24.732 10.7603 23.5659 11.0783 22.3997 11.2903C20.8094 11.6084 17.7349 12.7216 16.0916 13.3577C15.5616 13.5697 15.1375 13.7818 14.6604 13.9938L9.83663 16.5382C8.51142 17.2803 6.81514 18.6585 5.59595 19.6657L4.00569 21.203C2.8395 22.3691 2.57446 22.9522 1.67331 24.1184L1.09022 25.0196C1.03721 25.1786 0.931191 25.2846 0.878182 25.3906C0.613139 25.7617 0.401105 26.2918 0.136062 26.7689C-0.234998 27.458 0.24208 29.5253 0.507122 30.2144C1.35526 32.3878 2.46844 34.3491 4.48277 35.7273C4.80082 36.0984 6.12603 36.9995 6.49709 36.9995Z" fill="#00A3E4"/>
<path d="M7.55731 30.4267L9.3066 27.7233C9.41261 27.5643 9.46562 27.4583 9.57164 27.2992C10.6848 25.815 12.3811 23.5886 13.7593 22.3694C13.9183 22.2634 13.9714 22.2104 14.0774 22.0514L15.4556 20.7792C15.7206 20.5141 17.1519 19.454 17.3639 19.401C17.735 20.1961 18.053 21.0972 18.4771 21.9454C18.5831 22.2104 18.6361 22.4225 18.7421 22.6345C19.3782 24.0127 20.4914 26.2921 19.8023 27.6173C19.3782 28.4654 18.5831 28.7305 17.4699 28.9955V29.8437H29.5029V29.1015C29.1318 28.9955 28.6547 28.9955 28.3367 28.8895C28.1246 28.7835 27.5946 28.5184 27.4355 28.3594C26.9585 27.9353 26.5344 27.2462 26.2693 26.6631C26.1633 26.5041 26.1103 26.4511 26.0043 26.2921C25.8983 26.08 25.8983 26.027 25.7923 25.815C25.3152 24.9139 24.8381 23.7477 24.414 22.8995C24.096 22.2104 23.884 21.5743 23.5659 20.9382L21.8696 16.9626C21.7636 16.5915 21.6046 16.3265 21.4456 15.9554C21.3926 15.7964 21.0745 15.1073 21.0215 14.9482C20.8095 15.0013 18.9542 16.0614 18.7421 16.2204L14.6605 19.401L11.586 22.6345C11.4799 22.7405 11.4799 22.7405 11.4269 22.8995L9.41261 25.921C9.3066 26.1861 9.20058 26.2391 9.09456 26.5041L8.51147 27.7233C8.24642 28.0944 7.55731 30.0557 7.55731 30.4267Z" fill="#1A77B5"/>
<path d="M5.64899 18.553L8.08738 16.6977C8.40543 16.4857 8.40543 16.5387 8.56446 16.1146L10.2077 12.351C10.3137 12.086 10.4728 11.9269 10.5788 11.6089C10.7378 11.2378 10.7908 11.1318 10.9498 10.8138L12.3281 7.79226L12.9112 9.06447C13.2292 9.59456 14.3954 12.6691 14.7135 13.0401C15.3496 12.8281 16.0917 12.457 16.6748 12.245C17.3639 11.9799 18.106 11.7679 18.7421 11.5559C20.8625 10.8138 25.4212 9.80659 27.9126 9.43553C29.5559 9.17049 31.5172 9.06447 33.2135 9.06447C32.7894 8.85244 30.298 8.69341 29.6089 8.69341C26.1633 8.53438 22.9828 9.06447 19.6433 9.8596C18.5831 10.1246 18.9541 10.4427 18.265 8.79943L17.6819 7.52722C17.0458 6.20201 15.4026 2.12034 14.8195 1.06017C14.7135 0.848137 14.6604 0.636104 14.5544 0.371061C14.3954 0.053009 14.3954 0 13.9713 0C13.7593 0.265043 13.1232 1.8553 12.9642 2.27937C12.8051 2.59742 12.6461 3.02149 12.4341 3.39255L11.3739 5.72493C11.2679 5.93696 11.1619 6.09599 11.1089 6.30802L8.24641 12.6691C7.82234 13.7292 7.08022 15.2135 6.70916 16.1676C6.49712 16.6447 5.755 18.1819 5.64899 18.553Z" fill="#1A77B5"/>
<path d="M77.3166 20.8855L80.8151 26.0803C81.7693 27.5115 82.5114 28.4127 82.9885 28.8368C83.4656 29.2608 84.0487 29.4199 84.7908 29.4729V29.8969H77.7937V29.4729C78.2707 29.4729 78.5888 29.4198 78.8008 29.3138C78.9598 29.2608 79.1189 29.1548 79.2249 28.9958C79.3309 28.8368 79.3839 28.6777 79.3839 28.5717C79.3839 28.4127 79.3309 28.2007 79.2779 28.0416C79.2249 27.8826 79.0129 27.5645 78.6418 26.9815L75.8853 22.8468L72.4928 27.1935C72.1217 27.6706 71.9097 27.9886 71.8567 28.1476C71.8037 28.3067 71.7507 28.4657 71.7507 28.6247C71.7507 28.8898 71.8567 29.1018 72.0687 29.2608C72.2808 29.4198 72.7048 29.5259 73.2879 29.5259V29.9499H67.51V29.5259C67.9341 29.4729 68.2521 29.4198 68.5702 29.2608C69.0472 29.0488 69.5243 28.7837 70.0014 28.4127C70.4255 28.0416 70.9555 27.5115 71.5386 26.7694L75.3022 21.9456L72.1747 17.2279C71.3266 15.9557 70.5845 15.1075 69.9484 14.7365C69.3653 14.3124 68.6232 14.1534 67.828 14.1004V13.6763H75.3553V14.1004C74.7192 14.1004 74.2951 14.2064 74.03 14.4184C73.818 14.5774 73.659 14.7895 73.659 15.0545C73.659 15.3726 73.871 15.7966 74.2421 16.3797L76.7335 20.0903L79.5959 16.4327C79.914 16.0087 80.126 15.6906 80.2321 15.5316C80.2851 15.3726 80.3381 15.2135 80.3381 15.0545C80.3381 14.8955 80.2851 14.7365 80.179 14.6305C80.073 14.4714 79.914 14.3654 79.702 14.2594C79.5429 14.2064 79.1189 14.1534 78.5888 14.1534V13.7293H84.3667V14.1534C83.8896 14.1534 83.5186 14.2594 83.2535 14.3654C82.8295 14.5244 82.4054 14.7895 82.0874 15.1075C81.7163 15.4256 81.2392 16.0087 80.5501 16.8568L77.3166 20.8855ZM60.4598 23.5889L57.7034 17.0158L54.8939 23.5889H60.4598ZM60.8309 24.437H54.5229L53.4097 26.9815C53.1447 27.6176 52.9856 28.0946 52.9856 28.4127C52.9856 28.6777 53.0917 28.8898 53.3567 29.0488C53.5687 29.2078 54.0988 29.3668 54.8939 29.4198V29.8439H49.7521V29.4198C50.4412 29.3138 50.8653 29.1548 51.0773 28.9428C51.5014 28.5717 51.9255 27.7766 52.4025 26.6104L58.1275 13.1992H58.5515L64.2234 26.7164C64.7005 27.8296 65.0716 28.5187 65.4426 28.8368C65.8137 29.1548 66.3438 29.3668 66.9799 29.3668V29.7909H60.5659V29.3668C61.202 29.3138 61.626 29.2078 61.8911 29.0488C62.1031 28.8898 62.2091 28.6247 62.2091 28.3597C62.2091 27.9886 62.0501 27.4585 61.732 26.7164L60.8309 24.437ZM31.5172 13.6233H35.9169L45.8825 25.8683V16.4327C45.8825 15.4256 45.7765 14.7895 45.5644 14.5774C45.2464 14.2594 44.7693 14.0474 44.1332 14.0474H43.5501V13.6233H49.275V14.0474H48.6919C48.0028 14.0474 47.5257 14.2594 47.2077 14.6835C47.0487 14.9485 46.9427 15.5316 46.9427 16.4327V30.162H46.5186L35.7578 17.0158V27.0345C35.7578 28.0416 35.8639 28.6777 36.0759 28.8898C36.3939 29.2078 36.871 29.4198 37.5071 29.4198H38.0902V29.8439H32.3653V29.4198H32.9484C33.6375 29.4198 34.1676 29.2078 34.4326 28.7837C34.5916 28.5187 34.6977 27.9356 34.6977 27.0345V15.7436C34.2206 15.2135 33.8495 14.8425 33.6375 14.6305C33.3725 14.4714 33.0544 14.3124 32.5773 14.1534C32.3653 14.1004 31.9942 14.0474 31.5172 14.0474V13.6233Z" fill="#1A77B5"/>
<path d="M84.2077 32.0171L84.3137 33.1303H84.2077C84.1017 32.8653 83.9957 32.6533 83.8366 32.4942C83.6246 32.2822 83.3596 32.1762 83.0415 32.1762C82.6174 32.1762 82.2464 32.3352 82.0343 32.7063C81.8223 33.0243 81.7693 33.3424 81.7693 33.7664C81.7693 34.0845 81.8223 34.4025 81.9813 34.6676C82.0873 34.9326 82.2994 35.1447 82.5114 35.2507C82.7234 35.3567 82.9355 35.4627 83.1475 35.4627C83.2535 35.4627 83.4126 35.4627 83.5186 35.4097C83.6246 35.3567 83.7306 35.3567 83.8896 35.2507V34.2435C83.8896 34.0845 83.8896 33.9255 83.8366 33.8724C83.7836 33.8194 83.7836 33.7664 83.7306 33.7664C83.6776 33.7134 83.5716 33.7134 83.4126 33.7134V33.6074H84.7908V33.7134H84.6848C84.5257 33.7134 84.4727 33.7664 84.4197 33.8724C84.3667 33.9255 84.3667 34.0845 84.3667 34.2435V35.3037C84.1547 35.4097 83.9957 35.5157 83.7836 35.5157C83.5716 35.5687 83.3596 35.5687 83.1475 35.5687C82.4584 35.5687 81.9813 35.3567 81.6103 34.9326C81.3452 34.6146 81.2392 34.2435 81.2392 33.8194C81.2392 33.5014 81.2922 33.2363 81.4512 32.9183C81.6103 32.6002 81.8753 32.3352 82.1934 32.1232C82.4584 31.9641 82.7765 31.9111 83.0945 31.9111C83.2005 31.9111 83.3596 31.9111 83.4656 31.9641C83.5716 31.9641 83.7306 32.0172 83.8896 32.1232C83.9957 32.1762 84.0487 32.1762 84.1017 32.1762C84.1547 32.1762 84.1547 32.1762 84.2077 32.1232C84.2077 32.0702 84.2607 32.0171 84.2607 31.9641L84.2077 32.0171ZM77.0515 32.0702H78.0057L80.179 34.7206V32.7063C80.179 32.4942 80.179 32.3352 80.126 32.2822C80.073 32.2292 79.967 32.1762 79.808 32.1762H79.702V32.0702H80.9212V32.1762H80.8151C80.6561 32.1762 80.5501 32.2292 80.4971 32.3352C80.4441 32.3882 80.4441 32.4942 80.4441 32.7063V35.6747H80.3381L78.0057 32.8123V34.9856C78.0057 35.1977 78.0057 35.3567 78.0587 35.4097C78.1117 35.4627 78.2177 35.5157 78.3768 35.5157H78.4828V35.6217H77.2636V35.5157H77.3696C77.5286 35.5157 77.6346 35.4627 77.6876 35.3567C77.7407 35.3037 77.7406 35.1977 77.7406 34.9856V32.5472C77.6346 32.4412 77.5816 32.3352 77.5286 32.3352C77.4756 32.2822 77.4226 32.2822 77.3166 32.2292C77.2636 32.2292 77.2106 32.2292 77.1045 32.2292L77.0515 32.0702ZM76.9985 35.5157V35.6217H75.5143V35.5157H75.6203C75.7793 35.5157 75.8853 35.4627 75.9384 35.4097C75.9914 35.3567 75.9914 35.1977 75.9914 35.0386V32.7593C75.9914 32.6002 75.9914 32.4412 75.9384 32.3882C75.9384 32.3352 75.8853 32.3352 75.8323 32.2822C75.7793 32.2292 75.6733 32.2292 75.6203 32.2292H75.5143V32.1232H76.9985V32.2292H76.8925C76.7335 32.2292 76.6275 32.2822 76.5745 32.3352C76.5214 32.3882 76.5215 32.5472 76.5215 32.7063V34.9856C76.5215 35.1447 76.5214 35.3037 76.5745 35.3567C76.5745 35.4097 76.6275 35.4097 76.6805 35.4627C76.7335 35.5157 76.8395 35.5157 76.8925 35.5157H76.9985ZM72.5988 35.3567C72.8108 35.4097 73.0229 35.4097 73.1289 35.4097C73.5 35.4097 73.871 35.2507 74.1361 34.9856C74.4011 34.7206 74.5071 34.2965 74.5071 33.8194C74.5071 33.3424 74.4011 32.9713 74.1361 32.6533C73.871 32.3352 73.553 32.2292 73.1289 32.2292C72.9699 32.2292 72.8108 32.2292 72.5988 32.2822V35.3567ZM71.5917 35.6217V35.5157H71.6977C71.8567 35.5157 71.9627 35.4627 72.0157 35.3567C72.0687 35.3037 72.0687 35.1447 72.0687 34.9856V32.7063C72.0687 32.4942 72.0687 32.3352 72.0157 32.2822C71.9627 32.2292 71.8567 32.1762 71.6977 32.1762H71.5917V32.0702H73.0229C73.553 32.0702 73.924 32.1232 74.2421 32.2292C74.5071 32.3352 74.7192 32.5472 74.9312 32.8123C75.1432 33.0773 75.1962 33.3954 75.1962 33.7664C75.1962 34.2435 75.0372 34.6676 74.7722 34.9856C74.4541 35.3567 73.924 35.5157 73.2349 35.5157L71.5917 35.6217ZM70.0544 34.2435L69.4713 32.8123L68.8882 34.2435H70.0544ZM70.1074 34.4555H68.7292L68.5172 34.9856C68.4641 35.1447 68.4111 35.1977 68.4111 35.3037C68.4111 35.3567 68.4641 35.4097 68.4641 35.4627C68.4641 35.5157 68.6232 35.5157 68.7822 35.5157V35.6217H67.722V35.5157C67.8811 35.4627 67.9341 35.4627 67.9871 35.4097C68.0931 35.3037 68.1991 35.1447 68.3051 34.8796L69.5243 31.9641H69.6303L70.8495 34.8796C70.9555 35.0916 71.0616 35.2507 71.1146 35.3567C71.1676 35.4097 71.3266 35.4627 71.4326 35.4627V35.5687H70.0544V35.4627C70.2134 35.4627 70.2664 35.4097 70.3194 35.4097C70.3724 35.3567 70.3725 35.3037 70.3725 35.2507C70.3725 35.1977 70.3194 35.0386 70.2664 34.8796L70.1074 34.4555ZM65.2306 33.7664C65.2836 33.7664 65.2836 33.7664 65.3366 33.7664H65.3896C65.7077 33.7664 65.9727 33.7134 66.1318 33.5544C66.2908 33.3954 66.3968 33.2363 66.3968 33.0243C66.3968 32.8123 66.3438 32.6533 66.1848 32.4942C66.0258 32.3352 65.8667 32.2822 65.6547 32.2822C65.5487 32.2822 65.4427 32.2822 65.2306 32.3352V33.7664ZM67.722 35.6217H66.7679L65.5487 33.9785C65.4426 33.9785 65.3896 33.9785 65.3366 33.9785H65.2836H65.2306V34.9856C65.2306 35.1977 65.2306 35.3567 65.2836 35.4097C65.3366 35.4627 65.4427 35.5157 65.6017 35.5157H65.7607V35.6217H64.2765V35.5157H64.3825C64.5415 35.5157 64.6475 35.4627 64.7005 35.3567C64.7535 35.3037 64.7535 35.1977 64.7535 34.9856V32.7063C64.7535 32.4942 64.7535 32.3352 64.7005 32.2822C64.6475 32.2292 64.5415 32.1762 64.3825 32.1762H64.2765V32.0702H65.5487C65.9197 32.0702 66.1848 32.1232 66.3968 32.1232C66.5558 32.1762 66.7149 32.2822 66.8739 32.4412C66.9799 32.6002 67.0859 32.7593 67.0859 32.9713C67.0859 33.1833 67.0329 33.3954 66.8739 33.5544C66.7149 33.7134 66.5028 33.8194 66.2378 33.8724L66.9799 34.8796C67.1389 35.0916 67.298 35.2507 67.404 35.3567C67.51 35.4097 67.669 35.4627 67.8811 35.5157V35.6217H67.722ZM63.9584 32.0702L64.0114 32.9183H63.9054C63.9054 32.7593 63.8524 32.6533 63.8524 32.6002C63.7994 32.4942 63.7464 32.4412 63.6404 32.3882C63.5343 32.3352 63.4283 32.3352 63.2693 32.3352H62.7922V35.0386C62.7922 35.2507 62.7922 35.4097 62.8452 35.4627C62.8982 35.5157 63.0043 35.5687 63.1633 35.5687H63.2693V35.6747H61.7851V35.5687H61.8911C62.0501 35.5687 62.1561 35.5157 62.2091 35.4097C62.2621 35.3567 62.2621 35.2507 62.2621 35.0386V32.3352H61.8381C61.679 32.3352 61.573 32.3352 61.467 32.3882C61.361 32.4412 61.308 32.4942 61.255 32.6002C61.202 32.7063 61.149 32.8123 61.149 32.9713H61.0429L61.096 32.1232L63.9584 32.0702ZM59.6647 34.6146H59.7707L59.4527 35.5687H56.6962V35.4627H56.8023C56.9613 35.4627 57.0673 35.4097 57.1203 35.3037C57.1733 35.2507 57.1733 35.1447 57.1733 34.9326V32.6533C57.1733 32.4412 57.1733 32.2822 57.1203 32.2292C57.0673 32.1762 56.9613 32.1232 56.8023 32.1232H56.6962V32.0171H58.2865V32.1232C58.0745 32.1232 57.9684 32.1232 57.9154 32.1762C57.8624 32.2292 57.8094 32.2292 57.7564 32.3352C57.7034 32.3882 57.7034 32.5472 57.7034 32.7063V34.9326C57.7034 35.0916 57.7034 35.1977 57.7564 35.2507C57.7564 35.3037 57.8094 35.3037 57.8624 35.3037C57.9154 35.3037 58.0215 35.3567 58.2865 35.3567H58.5515C58.8166 35.3567 59.0286 35.3567 59.1346 35.3037C59.2407 35.2507 59.3467 35.1977 59.4527 35.0916C59.5057 35.0386 59.5587 34.8796 59.6647 34.6146ZM55.106 34.2435L54.5229 32.8123L53.9398 34.2435H55.106ZM55.212 34.4555H53.8338L53.6217 34.9856C53.5687 35.1447 53.5157 35.1977 53.5157 35.3037C53.5157 35.3567 53.5687 35.4097 53.5687 35.4627C53.6217 35.5157 53.7278 35.5157 53.8868 35.5157V35.6217H52.7736V35.5157C52.9326 35.4627 52.9856 35.4627 53.0386 35.4097C53.1447 35.3037 53.2507 35.1447 53.3567 34.8796L54.5759 31.9641H54.6819L55.9011 34.8796C56.0071 35.0916 56.1131 35.2507 56.1661 35.3567C56.2192 35.4097 56.3782 35.4627 56.4842 35.4627V35.5687H55.106V35.4627C55.265 35.4627 55.318 35.4097 55.371 35.4097C55.424 35.4097 55.424 35.3037 55.424 35.2507C55.424 35.1977 55.371 35.0386 55.318 34.8796L55.212 34.4555ZM48.851 32.0702H49.8051L51.9785 34.7206V32.7063C51.9785 32.4942 51.9785 32.3352 51.9255 32.2822C51.8725 32.2292 51.7664 32.1762 51.6074 32.1762H51.5014V32.0702H52.7206V32.1762H52.6146C52.4555 32.1762 52.3495 32.2292 52.2965 32.3352C52.2435 32.3882 52.2435 32.4942 52.2435 32.7063V35.6747H52.1375L49.8051 32.8123V34.9856C49.8051 35.1977 49.8051 35.3567 49.8581 35.4097C49.9111 35.4627 50.0172 35.5157 50.1762 35.5157H50.2822V35.6217H49.063V35.5157H49.169C49.328 35.5157 49.4341 35.4627 49.4871 35.3567C49.5401 35.3037 49.5401 35.1977 49.5401 34.9856V32.5472C49.4341 32.4412 49.3811 32.3352 49.328 32.3352C49.275 32.2822 49.222 32.2822 49.116 32.2292C49.063 32.2292 49.01 32.2292 48.904 32.2292L48.851 32.0702ZM46.9957 32.1762C46.6776 32.1762 46.4126 32.2822 46.2535 32.5472C46.0415 32.8123 45.8825 33.2363 45.8825 33.8194C45.8825 34.4025 45.9885 34.8266 46.2535 35.1447C46.4656 35.3567 46.6776 35.5157 46.9957 35.5157C47.3137 35.5157 47.5788 35.4097 47.7908 35.1447C48.0028 34.8796 48.1088 34.4555 48.1088 33.9255C48.1088 33.3424 48.0028 32.8653 47.7378 32.6002C47.5788 32.2822 47.3137 32.1762 46.9957 32.1762ZM47.0487 32.0171C47.5258 32.0171 47.8968 32.1762 48.2149 32.5472C48.5329 32.9183 48.7449 33.3424 48.7449 33.8724C48.7449 34.4025 48.5859 34.8796 48.2149 35.1977C47.8968 35.5687 47.4727 35.7277 46.9957 35.7277C46.5186 35.7277 46.0945 35.5687 45.7765 35.1977C45.4584 34.8266 45.2994 34.4025 45.2994 33.8724C45.2994 33.3424 45.5114 32.8653 45.8825 32.4942C46.2005 32.1762 46.5716 32.0171 47.0487 32.0171ZM44.9813 35.5157V35.6217H43.4971V35.5157H43.6031C43.7621 35.5157 43.8682 35.4627 43.9212 35.4097C43.9742 35.3567 43.9742 35.1977 43.9742 35.0386V32.7593C43.9742 32.6002 43.9742 32.4412 43.9212 32.3882C43.9212 32.3352 43.8682 32.3352 43.8152 32.2822C43.7621 32.2292 43.6561 32.2292 43.6031 32.2292H43.4971V32.1232H44.9813V32.2292H44.8753C44.7163 32.2292 44.6103 32.2822 44.5573 32.3352C44.5043 32.3882 44.5043 32.5472 44.5043 32.7063V34.9856C44.5043 35.1447 44.5043 35.3037 44.5573 35.3567C44.5573 35.4097 44.6103 35.4097 44.6633 35.4627C44.7163 35.5157 44.8223 35.5157 44.8753 35.5157H44.9813ZM43.179 32.0702L43.2321 32.9183H43.126C43.126 32.7593 43.073 32.6533 43.073 32.6002C43.02 32.4942 42.967 32.4412 42.861 32.3882C42.755 32.3352 42.649 32.3352 42.4899 32.3352H42.0129V35.0386C42.0129 35.2507 42.0129 35.4097 42.0659 35.4627C42.1189 35.5157 42.2249 35.5687 42.3839 35.5687H42.4899V35.6747H41.0057V35.5687H41.1117C41.2707 35.5687 41.3768 35.5157 41.4298 35.4097C41.4828 35.3567 41.4828 35.2507 41.4828 35.0386V32.3352H41.0587C40.8997 32.3352 40.7937 32.3352 40.6876 32.3882C40.5816 32.4412 40.5286 32.4942 40.4756 32.6002C40.4226 32.7063 40.3696 32.8123 40.3696 32.9713H40.2636L40.3166 32.1232L43.179 32.0702ZM39.2034 34.2435L38.6203 32.8123L38.0372 34.2435H39.2034ZM39.2564 34.4555H37.8782L37.6662 34.9856C37.6131 35.1447 37.5601 35.1977 37.5601 35.3037C37.5601 35.3567 37.6131 35.4097 37.6131 35.4627C37.6662 35.5157 37.7722 35.5157 37.9312 35.5157V35.6217H36.818V35.5157C36.977 35.4627 37.03 35.4627 37.0831 35.4097C37.1891 35.3037 37.2951 35.1447 37.4011 34.8796L38.6203 31.9641H38.7263L39.9455 34.8796C40.0515 35.0916 40.1576 35.2507 40.2106 35.3567C40.2636 35.4097 40.4226 35.4627 40.5286 35.4627V35.5687H39.1504V35.4627C39.3094 35.4627 39.3624 35.4097 39.4154 35.4097C39.4684 35.3567 39.4684 35.3037 39.4684 35.2507C39.4684 35.1977 39.4154 35.0386 39.3624 34.8796L39.2564 34.4555ZM32.9484 32.0702H33.9025L36.0759 34.7206V32.7063C36.0759 32.4942 36.0759 32.3352 36.0229 32.2822C35.9699 32.2292 35.8639 32.1762 35.7048 32.1762H35.5988V32.0702H36.818V32.1762H36.712C36.553 32.1762 36.447 32.2292 36.3939 32.3352C36.3409 32.3882 36.3409 32.4942 36.3409 32.7063V35.6747H36.2349L33.9025 32.8123V34.9856C33.9025 35.1977 33.9025 35.3567 33.9556 35.4097C34.0086 35.4627 34.1146 35.5157 34.2736 35.5157H34.3266V35.6217H33.1074V35.5157H33.2134C33.3725 35.5157 33.4785 35.4627 33.5315 35.3567C33.5845 35.3037 33.5845 35.1977 33.5845 34.9856V32.5472C33.4785 32.4412 33.4255 32.3352 33.3725 32.3352C33.3194 32.2822 33.2664 32.2822 33.1604 32.2292C33.1074 32.2292 33.0544 32.2292 32.9484 32.2292V32.0702ZM30.563 33.7664C30.616 33.7664 30.616 33.7664 30.669 33.7664H30.722C31.0401 33.7664 31.3051 33.7134 31.4641 33.5544C31.6232 33.3954 31.7292 33.2363 31.7292 33.0243C31.7292 32.8123 31.6762 32.6533 31.5172 32.4942C31.3581 32.3352 31.1991 32.2822 30.9871 32.2822C30.8811 32.2822 30.775 32.2822 30.563 32.3352V33.7664ZM33.0544 35.6217H32.1003L30.8811 33.9785C30.775 33.9785 30.722 33.9785 30.669 33.9785H30.616C30.563 33.9785 30.563 33.9785 30.563 33.9785V34.9856C30.563 35.1977 30.563 35.3567 30.616 35.4097C30.669 35.4627 30.775 35.5157 30.9341 35.5157H31.0931V35.6217H29.6088V35.5157H29.7149C29.8739 35.5157 29.9799 35.4627 30.0329 35.3567C30.0859 35.3037 30.0859 35.1977 30.0859 34.9856V32.7063C30.0859 32.4942 30.0859 32.3352 30.0329 32.2822C29.9799 32.2292 29.8739 32.1762 29.7149 32.1762H29.6088V32.0702H30.8811C31.2521 32.0702 31.5172 32.1232 31.7292 32.1232C31.8882 32.1762 32.0472 32.2822 32.2063 32.4412C32.3123 32.6002 32.4183 32.7593 32.4183 32.9713C32.4183 33.1833 32.3653 33.3954 32.2063 33.5544C32.0472 33.7134 31.8352 33.8194 31.5702 33.8724L32.3123 34.8796C32.4713 35.0916 32.6303 35.2507 32.7364 35.3567C32.8424 35.4097 33.0014 35.4627 33.2134 35.5157V35.6217H33.0544ZM27.3295 32.2822V33.6604H28.1246C28.3366 33.6604 28.4427 33.6074 28.5487 33.5544C28.6547 33.5014 28.7077 33.3424 28.7077 33.1303H28.8137V34.3495H28.7077C28.7077 34.1905 28.6547 34.0845 28.6547 34.0315C28.6017 33.9785 28.6017 33.9255 28.4957 33.8724C28.4427 33.8194 28.3366 33.8194 28.1776 33.8194H27.3825V34.9856C27.3825 35.1447 27.3825 35.2507 27.3825 35.2507C27.3825 35.3037 27.4355 35.3037 27.4355 35.3037C27.4885 35.3037 27.5415 35.3567 27.6475 35.3567H28.2306C28.4427 35.3567 28.5487 35.3567 28.6547 35.3037C28.7607 35.2507 28.8137 35.2507 28.9197 35.1447C29.0258 35.0386 29.1318 34.8796 29.2378 34.6676H29.3438L29.0258 35.5687H26.3223V35.4627H26.4283C26.5343 35.4627 26.5874 35.4627 26.6404 35.4097C26.6934 35.3567 26.7464 35.3567 26.7464 35.3037C26.7464 35.2507 26.7994 35.1447 26.7994 34.9856V32.7063C26.7994 32.4942 26.7994 32.3352 26.7464 32.2822C26.6934 32.2292 26.5874 32.1762 26.4283 32.1762H26.3223V32.0702H29.0258L29.0788 32.8653H28.9727C28.9197 32.6533 28.9197 32.5472 28.8667 32.4942C28.8137 32.4412 28.7607 32.3882 28.6547 32.3352C28.6017 32.2822 28.4427 32.2822 28.2836 32.2822H27.3295ZM26.0573 32.0702L26.1103 32.9183H26.0043C26.0043 32.7593 25.9513 32.6533 25.9513 32.6002C25.8982 32.4942 25.8452 32.4412 25.7392 32.3882C25.6332 32.3352 25.5272 32.3352 25.3682 32.3352H24.8911V35.0386C24.8911 35.2507 24.8911 35.4097 24.9441 35.4627C24.9971 35.5157 25.1031 35.5687 25.2621 35.5687H25.3152V35.6747H23.8309V35.5687H23.9369C24.096 35.5687 24.202 35.5157 24.255 35.4097C24.308 35.3567 24.308 35.2507 24.308 35.0386V32.3352H23.8839C23.7249 32.3352 23.6189 32.3352 23.5129 32.3882C23.4068 32.4412 23.3538 32.4942 23.3008 32.6002C23.2478 32.7063 23.1948 32.8123 23.1948 32.9713H23.0888L23.1418 32.1232L26.0573 32.0702ZM19.0601 32.0702H20.0143L22.1876 34.7206V32.7063C22.1876 32.4942 22.1876 32.3352 22.1346 32.2822C22.0816 32.2292 21.9756 32.1762 21.8166 32.1762H21.7106V32.0702H22.9298V32.1762H22.8237C22.6647 32.1762 22.5587 32.2292 22.5057 32.3352C22.4527 32.3882 22.4527 32.4942 22.4527 32.7063V35.6747H22.3467L20.0143 32.8123V34.9856C20.0143 35.1977 20.0143 35.3567 20.0673 35.4097C20.1203 35.4627 20.2263 35.5157 20.3854 35.5157H20.4914V35.6217H19.2722V35.5157H19.3782C19.5372 35.5157 19.6432 35.4627 19.6962 35.3567C19.7493 35.3037 19.7492 35.1977 19.7492 34.9856V32.5472C19.6432 32.4412 19.5902 32.3352 19.5372 32.3352C19.4842 32.2822 19.4312 32.2822 19.3252 32.2292C19.2722 32.2292 19.2192 32.2292 19.1131 32.2292L19.0601 32.0702ZM19.0071 35.5157V35.6217H17.5229V35.5157H17.6289C17.7879 35.5157 17.8939 35.4627 17.947 35.4097C18 35.3567 18 35.1977 18 35.0386V32.7593C18 32.6002 18 32.4412 17.947 32.3882C17.947 32.3352 17.8939 32.3352 17.8409 32.2822C17.7879 32.2292 17.6819 32.2292 17.6289 32.2292H17.5229V32.1232H19.0071V32.2292H18.9011C18.7421 32.2292 18.6361 32.2822 18.5831 32.3352C18.5301 32.3882 18.5301 32.5472 18.5301 32.7063V34.9856C18.5301 35.1447 18.5301 35.3037 18.5831 35.3567C18.5831 35.4097 18.6361 35.4097 18.6891 35.4627C18.7421 35.5157 18.8481 35.5157 18.9011 35.5157H19.0071Z" fill="#1A77B5"/>
</svg>
