<svg width="65" height="66" viewBox="0 0 65 66" fill="none" xmlns="http://www.w3.org/2000/svg">
<path d="M1.44299 64.8607C1.63145 64.8081 1.79703 64.6942 1.91364 64.5371C2.03025 64.38 2.09127 64.1885 2.08706 63.9929C1.81417 62.3698 2.0834 60.7019 2.85317 59.2471C3.29549 58.3995 3.90312 57.649 4.64019 57.04C5.37726 56.4311 6.22885 55.9759 7.1447 55.7014L22.6973 52.3115C22.8736 52.542 23.0702 52.7929 23.2803 53.0369C23.4905 53.281 23.8973 53.6403 24.2498 53.959C24.6024 54.2776 25.0295 54.5352 25.4566 54.8336C27.4216 56.0327 29.6767 56.6727 31.9787 56.6844C34.2843 56.702 36.5486 56.0725 38.5143 54.8675C39.67 54.1714 40.6731 53.249 41.4634 52.1556C45.2329 53.4166 50.6702 54.8675 55.9109 56.0268C56.9378 56.2323 57.9074 56.6598 58.7517 57.2793C59.5961 57.8988 60.2948 58.6954 60.7991 59.6132C61.2315 60.4158 61.5206 61.2876 61.6533 62.1895C61.7546 62.9308 61.7774 63.6807 61.7211 64.4268C61.7211 64.5285 62.1211 64.7387 62.6093 64.8878C63.0974 65.037 63.416 65.037 63.4635 64.9285C63.8791 64.0487 64.1274 63.0992 64.1957 62.1285C64.2823 60.8483 64.0904 59.5646 63.633 58.3658C63.0913 56.9476 62.2198 55.6787 61.0906 54.6641C59.8608 53.5543 58.3707 52.7731 56.7584 52.3929C51.7686 51.1454 46.5211 50.02 42.6228 49.4437C42.5211 48.2776 42.399 47.4098 42.2634 46.7318C42.2634 46.6166 41.7889 46.5217 41.2668 46.5352C40.7448 46.5488 40.4194 46.6301 40.399 46.7318C40.1826 47.9654 40.0377 49.2104 39.9651 50.4607C39.0192 51.0463 38.0286 51.5564 37.0024 51.9861C35.4105 52.6396 33.7063 52.9758 31.9854 52.9759C30.2613 52.9585 28.5555 52.6205 26.9549 51.9793C26.5956 51.8098 26.2363 51.6539 25.8973 51.5047C25.5583 51.3556 25.2532 51.159 24.9481 51.003L24.2702 50.5963L24.3176 46.7318V44.6979V44.2912C24.3232 44.1873 24.3232 44.0832 24.3176 43.9793C24.2772 43.5851 24.1597 43.2027 23.9719 42.8539L23.3549 41.9115C22.0281 39.7238 21.2016 37.2697 20.9346 34.725C20.9346 31.2132 20.9346 27.6335 20.9346 24.0267V22.6708C20.9346 22.4267 20.9346 22.2369 20.9346 22.047V21.4572C20.9346 21.064 21.043 20.6843 21.0837 20.2911C21.1244 19.8979 21.2736 19.5318 21.3549 19.1521C21.8029 17.6525 22.5656 16.2657 23.5922 15.0843C25.068 13.3758 27.0207 12.1472 29.1996 11.5561C31.3786 10.9651 33.6844 11.0385 35.8214 11.7671C37.9583 12.4957 39.8287 13.8461 41.1928 15.6451C42.5569 17.4442 43.3523 19.6097 43.477 21.864L43.5109 22.386V22.9691V24.1216L43.5923 26.3928L43.6872 30.725L43.7414 32.7589V33.7555C43.7606 34.0128 43.7606 34.2711 43.7414 34.5284C43.6268 35.4922 43.1923 36.3898 42.5075 37.0776C41.8776 37.721 41.0704 38.1623 40.1889 38.3454C39.9811 38.39 39.7704 38.4195 39.5583 38.4335C39.3414 38.4335 39.0634 38.4335 38.8194 38.4742L37.7143 38.5284C37.4748 37.2679 36.7615 36.147 35.7211 35.3962C35.1298 34.9684 34.4498 34.6793 33.7315 34.5502C33.0132 34.421 32.2751 34.4553 31.5719 34.6505C30.9907 34.8105 30.4477 35.0855 29.9748 35.4594C29.502 35.8332 29.1091 36.2982 28.8193 36.8267C28.3935 37.5867 28.2472 38.4718 28.4058 39.3284C28.4058 39.4234 28.86 39.4911 29.3753 39.4844C29.6585 39.5021 29.9426 39.4723 30.2159 39.3962C30.3929 38.9932 30.6568 38.6344 30.9888 38.3454C31.3438 38.0345 31.7923 37.8508 32.2634 37.8233C32.4932 37.8025 32.7249 37.8298 32.9436 37.9035C33.1623 37.9771 33.3632 38.0956 33.5336 38.2512C33.704 38.4068 33.8401 38.5963 33.9332 38.8074C34.0263 39.0186 34.0744 39.2468 34.0744 39.4776C34.0744 39.7084 34.0263 39.9366 33.9332 40.1477C33.8401 40.3589 33.704 40.5483 33.5336 40.704C33.3632 40.8596 33.1623 40.978 32.9436 41.0517C32.7249 41.1254 32.4932 41.1527 32.2634 41.1318C31.8016 41.1067 31.3609 40.9304 31.0092 40.6301C30.6821 40.3425 30.4227 39.9859 30.2498 39.5861C29.9223 39.5029 29.5835 39.4731 29.2465 39.4979C28.7719 39.4979 28.4058 39.5657 28.3854 39.6539C28.229 40.5135 28.3777 41.4007 28.8058 42.1623C29.0977 42.6918 29.4929 43.1572 29.9681 43.5311C30.4432 43.9049 30.9886 44.1795 31.5719 44.3386C32.2772 44.5324 33.017 44.5648 33.7365 44.4333C34.456 44.3019 35.1367 44.0099 35.7278 43.5793C36.7667 42.8252 37.4775 41.702 37.7143 40.4403L38.8126 40.4945C39.0702 40.4945 39.2939 40.4945 39.5855 40.4945C39.8936 40.5012 40.2017 40.4854 40.5075 40.4471C41.8535 40.2873 43.1176 39.7168 44.1279 38.8132C45.2837 37.8081 46.0651 36.4412 46.3448 34.9352C46.3448 34.8945 46.3448 34.8471 46.3448 34.8064C46.8194 34.9081 47.355 35.003 47.9516 35.0911C48.3719 35.1522 48.8194 35.2064 49.3075 35.2538H49.4838H49.7346C49.9129 35.267 50.092 35.267 50.2702 35.2538C50.645 35.2141 51.0137 35.1299 51.3685 35.003C52.1541 34.7155 52.8515 34.2287 53.3923 33.5905C53.933 32.9522 54.2987 32.1844 54.4533 31.3623C54.4988 31.1389 54.526 30.9122 54.5347 30.6843V30.4064V30.1894V29.3216V27.5725V25.8233V24.9555V24.7386V24.4606C54.5258 24.2328 54.4986 24.0061 54.4533 23.7826C54.3421 23.2675 54.145 22.7747 53.8702 22.325C53.9218 21.241 53.881 20.1546 53.7482 19.0775C53.3891 16.0515 52.3833 13.1382 50.7991 10.5351C48.874 7.38787 46.1888 4.77489 42.9903 2.93632C39.7917 1.09774 36.1824 0.0925382 32.4939 0.0130769C28.8 -0.0848447 25.1412 0.751842 21.857 2.44551C18.5728 4.13917 15.7696 6.63494 13.7074 9.70124C11.9936 12.2206 10.8549 15.086 10.3718 18.0945C10.2769 18.7724 10.2295 19.4165 10.1684 20.0335C10.1359 20.6319 10.1359 21.2317 10.1684 21.8301V22.1826C9.85552 22.6783 9.63715 23.2277 9.52437 23.803C9.45642 24.1857 9.42239 24.5736 9.42268 24.9623V25.8301V27.586V29.342V30.2098V30.4606V30.7386C9.43142 30.9664 9.45863 31.1931 9.50403 31.4165C9.65777 32.2416 10.0237 33.0125 10.5657 33.6532C11.1078 34.2939 11.8074 34.7825 12.5956 35.0708C12.9526 35.1982 13.3236 35.2825 13.7007 35.3216C13.8812 35.3353 14.0625 35.3353 14.243 35.3216H14.4803H14.6566C15.1312 35.2742 15.5786 35.2199 16.0125 35.1589C16.4464 35.0979 16.8939 35.0233 17.2803 34.9488C17.2775 35.003 17.2775 35.0573 17.2803 35.1115C17.6451 38.2114 18.7091 41.1879 20.3922 43.8166C20.4939 43.9793 20.6091 44.1352 20.7176 44.2912L20.8736 44.5149V44.6979V46.7318V49.3691L13.8905 51.1386L10.0261 52.1556L8.182 52.6369L7.2803 52.8335C6.98877 52.9081 6.60233 53.0369 6.29046 53.1386C5.07267 53.572 3.95622 54.2496 3.00959 55.1297C2.06295 56.0099 1.30608 57.0742 0.785366 58.2573C-0.0655039 60.1774 -0.23066 62.3316 0.317568 64.359C0.352231 64.4703 0.410229 64.573 0.487695 64.6601C0.56516 64.7473 0.660314 64.8169 0.766811 64.8644C0.873308 64.9119 0.988703 64.9361 1.1053 64.9355C1.2219 64.9348 1.33702 64.9093 1.44299 64.8607ZM50.1007 32.0199C49.9889 32.0856 49.8708 32.1401 49.7482 32.1827C49.6868 32.2068 49.6232 32.2249 49.5584 32.2369H49.4567H49.2804C48.8126 32.2843 48.3652 32.3386 47.9245 32.3996C47.3776 32.4764 46.8849 32.5623 46.4465 32.6572L46.494 30.6233L46.6092 26.3928L46.6499 24.1284V22.9758V22.5758C47.0386 22.6527 47.4612 22.7227 47.9177 22.786C48.338 22.847 48.7855 22.9013 49.2736 22.9487H49.4499H49.5448C49.6097 22.9607 49.6732 22.9789 49.7346 23.003C49.8548 23.046 49.9706 23.1005 50.0804 23.1657C50.2982 23.2979 50.4825 23.4787 50.6189 23.6939C50.7553 23.9091 50.8402 24.153 50.8669 24.4064V27.5793L50.9075 30.7521C50.8822 31.012 50.7959 31.2622 50.6557 31.4825C50.5155 31.7028 50.3254 31.8869 50.1007 32.0199ZM16.0125 32.4267C15.5922 32.3657 15.1447 32.3115 14.6566 32.264H14.4803H14.3786C14.316 32.2519 14.2547 32.2337 14.1956 32.2098C14.0752 32.1671 13.9594 32.1126 13.8498 32.0471C13.6304 31.916 13.4445 31.7356 13.3069 31.5203C13.1692 31.3049 13.0835 31.0605 13.0566 30.8064V27.6267L13.0159 24.447C13.0413 24.1906 13.1263 23.9437 13.264 23.726C13.4017 23.5082 13.5884 23.3256 13.8091 23.1928C13.9208 23.1267 14.0389 23.0722 14.1617 23.0301C14.223 23.0056 14.2866 22.9875 14.3515 22.9758H14.46H14.6362C15.1108 22.9284 15.5583 22.8742 15.9922 22.8131C16.4261 22.7521 16.799 22.6911 17.1515 22.6233C17.1515 22.664 17.1515 22.7114 17.1515 22.7521V24.1081L17.26 32.6301C16.8758 32.5397 16.46 32.4719 16.0125 32.4267ZM17.7956 18.0809C17.6735 18.5894 17.5176 19.0911 17.4295 19.6063C17.4295 19.8436 17.3549 20.0809 17.321 20.2843C16.921 20.203 16.4871 20.1284 16.0125 20.0606C15.5379 19.9928 15.1447 19.9453 14.6566 19.8979H14.4803H14.2295C14.0489 19.884 13.8676 19.884 13.6871 19.8979C13.3242 19.9351 12.967 20.0147 12.6227 20.1352C12.7312 19.6402 12.8193 19.125 12.9481 18.603C13.6558 15.8711 14.9323 13.3193 16.6941 11.1148C18.4559 8.91019 20.6633 7.10241 23.1719 5.8097C26.0251 4.36044 29.1929 3.64069 32.3922 3.71478C35.589 3.77808 38.7192 4.64044 41.4973 6.22326C44.1208 7.70508 46.3649 9.77513 48.0533 12.2707C49.5224 14.4539 50.5539 16.9014 51.0906 19.4775C51.1448 19.6945 51.1855 19.9114 51.2262 20.1555C50.9115 20.0508 50.5865 19.9804 50.2567 19.9453C50.0761 19.932 49.8949 19.932 49.7143 19.9453H49.4635H49.2872C48.8194 19.9928 48.3719 20.047 47.9312 20.108C47.4906 20.1691 46.9618 20.2572 46.5753 20.3453C46.1748 17.1158 44.7046 14.1132 42.399 11.8165C40.5812 10.0195 38.3291 8.72369 35.862 8.05519C33.3948 7.38668 30.7966 7.36825 28.3203 8.00168C25.8439 8.63511 23.5736 9.89883 21.7305 11.6699C19.8874 13.4409 18.5341 15.6589 17.8024 18.108L17.7956 18.0809Z" fill="#1A77B5"/>
</svg>
