<svg width="54" height="53" viewBox="0 0 54 53" fill="none" xmlns="http://www.w3.org/2000/svg">
<path d="M16.6278 30.8832L15.4347 32.0542L19.4628 36.0077L28.4918 25.3737L27.1958 24.3137L19.3497 33.5548L16.6278 30.8832Z" fill="#00AEFF"/>
<path d="M6.75 9.10938C8.14556 9.10938 9.28125 7.99472 9.28125 6.625C9.28125 5.25528 8.14556 4.14062 6.75 4.14062C5.35444 4.14062 4.21875 5.25528 4.21875 6.625C4.21875 7.99472 5.35444 9.10938 6.75 9.10938ZM6.75 5.79688C7.21491 5.79688 7.59375 6.1687 7.59375 6.625C7.59375 7.0813 7.21491 7.45312 6.75 7.45312C6.28509 7.45312 5.90625 7.0813 5.90625 6.625C5.90625 6.1687 6.28509 5.79688 6.75 5.79688Z" fill="#6F7D9B"/>
<path d="M13.5 9.10938C14.8956 9.10938 16.0312 7.99472 16.0312 6.625C16.0312 5.25528 14.8956 4.14062 13.5 4.14062C12.1044 4.14062 10.9688 5.25528 10.9688 6.625C10.9688 7.99472 12.1044 9.10938 13.5 9.10938ZM13.5 5.79688C13.9649 5.79688 14.3438 6.1687 14.3438 6.625C14.3438 7.0813 13.9649 7.45312 13.5 7.45312C13.0351 7.45312 12.6562 7.0813 12.6562 6.625C12.6562 6.1687 13.0351 5.79688 13.5 5.79688Z" fill="#6F7D9B"/>
<path d="M20.25 9.10938C21.6456 9.10938 22.7812 7.99472 22.7812 6.625C22.7812 5.25528 21.6456 4.14062 20.25 4.14062C18.8544 4.14062 17.7188 5.25528 17.7188 6.625C17.7188 7.99472 18.8544 9.10938 20.25 9.10938ZM20.25 5.79688C20.7149 5.79688 21.0938 6.1687 21.0938 6.625C21.0938 7.0813 20.7149 7.45312 20.25 7.45312C19.7851 7.45312 19.4062 7.0813 19.4062 6.625C19.4062 6.1687 19.7851 5.79688 20.25 5.79688Z" fill="#6F7D9B"/>
<path d="M53.1562 21.5312C53.1562 15.8743 48.6852 11.2327 43.0312 10.8079V3.3125C43.0312 1.94278 41.8956 0.828125 40.5 0.828125H3.375C1.97944 0.828125 0.84375 1.94278 0.84375 3.3125V49.6875C0.84375 51.0572 1.97944 52.1719 3.375 52.1719H42.1875C44.5137 52.1719 46.4062 50.3144 46.4062 48.0312V35.6094C46.4062 34.696 45.6494 33.9531 44.7188 33.9531V31.9963C49.5484 30.87 53.1562 26.611 53.1562 21.5312ZM51.4688 21.5312C51.4688 26.5538 47.3048 30.6406 42.1875 30.6406C37.0702 30.6406 32.9062 26.5538 32.9062 21.5312C32.9062 16.5087 37.0702 12.4219 42.1875 12.4219C47.3048 12.4219 51.4688 16.5087 51.4688 21.5312ZM31.3158 22.891C31.5208 24.4744 32.0768 25.9493 32.9062 27.242V29.4481C32.9062 36.1427 28.4074 42.0365 21.9375 43.8583C15.4676 42.0365 10.9688 36.1435 10.9688 29.4481V23.1055C15.0398 22.6542 18.7245 21.6041 21.9375 19.981C24.7286 21.3921 27.8809 22.3652 31.3158 22.891ZM31.2356 21.2017C27.9577 20.6667 24.9657 19.7011 22.3366 18.3165L21.9375 18.107L21.5384 18.3165C18.2343 20.0564 14.3674 21.1387 10.0465 21.5346L9.28125 21.6041V29.4481C9.28125 36.965 14.3952 43.5735 21.7173 45.5171L21.9375 45.5759L22.1577 45.5171C29.4798 43.5726 34.5938 36.965 34.5938 29.4481V29.2808C35.0966 29.7562 35.6451 30.1843 36.2332 30.5586C35.737 38.579 29.9362 45.3539 21.9375 47.1808C13.4823 45.2512 7.59375 37.9861 7.59375 29.4473V19.8709C12.6571 19.8079 17.5972 18.4307 21.9375 15.876C24.878 17.6084 28.069 18.786 31.4364 19.3963C31.3166 19.9827 31.255 20.5872 31.2356 21.2017ZM3.375 2.48438H40.5C40.9649 2.48438 41.3438 2.8562 41.3438 3.3125V10.7656H2.53125V3.3125C2.53125 2.8562 2.91009 2.48438 3.375 2.48438ZM2.53125 49.6875V12.4219H36.3682C34.3381 13.6757 32.7594 15.5605 31.9123 17.7981C28.5196 17.2043 25.3159 16.0019 22.3838 14.204L21.9367 13.9299L21.4895 14.204C17.2074 16.8308 12.2757 18.2188 7.22672 18.2188H5.90625V29.449C5.90625 38.8308 12.4234 46.8048 21.7544 48.8395L21.9375 48.8792L22.1206 48.8395C30.6956 46.9696 37.0001 39.8999 37.8565 31.4182C38.432 31.6617 39.0352 31.8513 39.6562 31.9954V33.9531C38.7256 33.9531 37.9688 34.696 37.9688 35.6094V48.0312C37.9688 48.967 38.2987 49.8217 38.8344 50.5156H3.375C2.91009 50.5156 2.53125 50.1438 2.53125 49.6875ZM44.7188 35.6094V37.2656H39.6562V35.6094H44.7188ZM42.1875 50.5156C40.7919 50.5156 39.6562 49.401 39.6562 48.0312V38.9219H44.7188V48.0312C44.7188 49.401 43.5831 50.5156 42.1875 50.5156ZM43.0312 33.9531H41.3438V32.2546C41.623 32.2753 41.9023 32.2969 42.1875 32.2969C42.4727 32.2969 42.752 32.2762 43.0312 32.2546V33.9531Z" fill="#6F7D9B"/>
<path d="M41.3438 20.7031H43.0312V22.3594H41.3438V20.7031Z" fill="#6F7D9B"/>
<path d="M44.7188 20.7031H46.4062V22.3594H44.7188V20.7031Z" fill="#6F7D9B"/>
<path d="M37.9688 20.7031H39.6562V22.3594H37.9688V20.7031Z" fill="#6F7D9B"/>
</svg>
