<svg width="24" height="24" viewBox="0 0 24 24" fill="none" xmlns="http://www.w3.org/2000/svg">
<path d="M5.1575 21.8557H18.8425L18.8432 21.855H5.15674L5.1575 21.8557Z" fill="#C42126"/>
<path d="M11.9998 0C11.7641 0 11.5303 0.00851213 11.2982 0.021787H12.7016C12.4693 0.00851213 12.2355 0 11.9998 0Z" fill="#C42126"/>
<path d="M15.5466 4.38803H21.2767C20.5961 3.55947 19.805 2.82601 18.9287 2.20508H14.6259C14.982 2.83148 15.2881 3.57062 15.5466 4.38803Z" fill="#E7E7E7"/>
<path d="M14.6259 2.205H18.9287C17.1499 0.944443 15.0143 0.155044 12.7016 0.0214844H12.3322C13.4207 0.158489 13.9207 0.964101 14.6259 2.205Z" fill="#DC3027"/>
<path d="M23.5525 8.75522C23.3391 7.9943 23.053 7.26423 22.7013 6.57227H16.1091C16.2427 7.27315 16.348 8.00524 16.4261 8.75522H23.5525Z" fill="#E7E7E7"/>
<path d="M15.7383 6.57198H22.7012C22.3044 5.79155 21.8277 5.0592 21.2767 4.38867H15.1944C15.4088 5.06756 15.5909 5.79991 15.7383 6.57198Z" fill="#DC3027"/>
<path d="M16.6785 13.1216H23.9458C23.9803 12.7523 23.9998 12.3781 23.9998 11.9999C23.9998 11.642 23.981 11.2886 23.9503 10.9385H16.6802C16.7039 11.6645 16.7035 12.3959 16.6785 13.1216Z" fill="#E7E7E7"/>
<path d="M23.9505 10.9388C23.8848 10.189 23.7497 9.45958 23.5524 8.75586H16.1199C16.1946 9.47073 16.2439 10.2021 16.2679 10.9388H23.9505Z" fill="#DC3027"/>
<path d="M15.9837 17.489H22.6699C23.0265 16.7978 23.3171 16.0671 23.535 15.3057H16.307C16.2274 16.0568 16.1193 16.7887 15.9837 17.489Z" fill="#E7E7E7"/>
<path d="M23.5352 15.305C23.7366 14.6015 23.8765 13.872 23.946 13.1221H16.4521C16.4265 13.8593 16.3757 14.5905 16.2996 15.305H23.5352Z" fill="#DC3027"/>
<path d="M18.8432 21.8553C19.7322 21.2369 20.5344 20.5027 21.2259 19.6724H15.5956C15.3325 20.4932 15.02 21.2311 14.6575 21.8553H18.8432Z" fill="#E7E7E7"/>
<path d="M15.3838 19.6721H21.2258C21.7833 19.0023 22.2672 18.27 22.6698 17.4888H15.9346C15.7851 18.2614 15.6012 18.9941 15.3838 19.6721Z" fill="#DC3027"/>
<path d="M11.5649 23.9914C11.5407 23.9906 11.5165 23.9895 11.4922 23.9888C11.5165 23.9895 11.5407 23.9906 11.5649 23.9914Z" fill="#DC3027"/>
<path d="M11.9998 24.0001C14.5439 24.0001 16.9011 23.2059 18.8425 21.856H14.4995C13.7287 23.184 13.2202 24.0001 11.9998 24.0001Z" fill="#DC3027"/>
<path d="M11.9999 24.0002C11.8542 24.0002 11.7094 23.9968 11.565 23.9917C11.7109 23.9966 11.8559 24.0002 11.9999 24.0002Z" fill="#C42126"/>
<path d="M15.0232 2.20508H5.0713C4.1948 2.82601 3.40393 3.55942 2.72311 4.38803H15.9437C15.6853 3.57062 15.3793 2.83148 15.0232 2.20508Z" fill="#F3F4F5"/>
<path d="M5.0713 2.205H15.0232C14.3179 0.964101 13.4207 0.158489 12.3321 0.0214844H11.2982C8.98546 0.155044 6.84988 0.944443 5.0713 2.205Z" fill="#E73625"/>
<path d="M0.44754 8.75522H16.8045C16.7264 8.00509 16.6211 7.27315 16.4875 6.57227H1.29865C0.946969 7.26428 0.660901 7.9943 0.44754 8.75522Z" fill="#F3F4F5"/>
<path d="M2.72312 4.38867C2.17252 5.0592 1.69543 5.7915 1.29886 6.57198H16.4875C16.3403 5.80006 16.1583 5.06777 15.9437 4.38867C15.9437 4.38867 2.72312 4.38867 2.72312 4.38867Z" fill="#E73625"/>
<path d="M0 11.9998C0 12.3779 0.0197096 12.7522 0.0540115 13.1214H16.9511C16.9762 12.3957 16.9765 11.6645 16.9529 10.9385H0.0494514C0.018747 11.2885 0 11.6418 0 11.9998Z" fill="#F3F4F5"/>
<path d="M0.0494537 10.9388H16.9527C16.9286 10.202 16.8791 9.47078 16.8047 8.75586H0.447345C0.250097 9.45973 0.115017 10.189 0.0494537 10.9388Z" fill="#E73625"/>
<path d="M16.7986 15.3057H0.464767C0.682688 16.0673 0.973519 16.7978 1.32991 17.489H16.4754C16.6111 16.7889 16.7188 16.0569 16.7986 15.3057Z" fill="#F3F4F5"/>
<path d="M0.464777 15.305H16.7986C16.8746 14.5905 16.9256 13.8591 16.9512 13.1221H0.0540161C0.123532 13.8722 0.263577 14.6015 0.464777 15.305Z" fill="#E73625"/>
<path d="M5.15673 21.8553H14.9867C15.3491 21.231 15.6618 20.4932 15.9248 19.6724H2.77409C3.4655 20.5027 4.26752 21.2369 5.15673 21.8553Z" fill="#F3F4F5"/>
<path d="M1.33012 17.4888C1.73278 18.27 2.21665 19.0023 2.7741 19.6721H15.9248C16.1419 18.9941 16.3259 18.2614 16.4754 17.4888H1.33012Z" fill="#E73625"/>
<path d="M11.4922 23.9889C11.5165 23.9897 11.5407 23.9908 11.565 23.9915C11.7094 23.9967 11.8541 24.0001 11.9998 24.0001C13.2202 24.0001 14.2153 23.184 14.9863 21.856H5.15753C6.96874 23.1157 9.14278 23.891 11.4922 23.9889Z" fill="#E73625"/>
<path d="M11.7517 0.00585938C5.60239 0.130957 0.59037 4.87895 0.0509644 10.9185H11.752V0.00585938H11.7517Z" fill="#283991"/>
<path d="M2.40099 6.7998L2.58379 7.36272H3.1761L2.69693 7.71081L2.87994 8.27413L2.40099 7.92584L1.92218 8.27413L2.10483 7.71081L1.62582 7.36272H2.21813L2.40099 6.7998Z" fill="#EFEFEF"/>
<path d="M2.40099 8.78809L2.58379 9.35136H3.1761L2.69693 9.69944L2.87994 10.2628L2.40099 9.91447L1.92218 10.2628L2.10483 9.69944L1.62582 9.35136H2.21813L2.40099 8.78809Z" fill="#EFEFEF"/>
<path d="M4.39008 3.81543L4.57294 4.37855H5.16504L4.68603 4.72684L4.86889 5.28975L4.39008 4.94187L3.91107 5.28975L4.09393 4.72684L3.61472 4.37855H4.20702L4.39008 3.81543Z" fill="#EFEFEF"/>
<path d="M4.39008 5.80469L4.57294 6.36781H5.16504L4.68603 6.71569L4.86889 7.27901L4.39008 6.93113L3.91107 7.27901L4.09393 6.71569L3.61472 6.36781H4.20702L4.39008 5.80469Z" fill="#EFEFEF"/>
<path d="M4.39008 7.79395L4.57294 8.35727H5.16504L4.68603 8.70495L4.86889 9.26827L4.39008 8.92003L3.91107 9.26827L4.09393 8.70495L3.61472 8.35727H4.20702L4.39008 7.79395Z" fill="#EFEFEF"/>
<path d="M0.890834 9.26772L0.707823 8.7044L1.18683 8.35652H0.594885L0.58161 8.31543C0.516604 8.51648 0.457881 8.71996 0.403717 8.92572L0.412077 8.91949L0.890834 9.26772Z" fill="#EFEFEF"/>
<path d="M1.92217 6.28502L2.40098 5.93678L2.87999 6.28502L2.69698 5.7217L3.17599 5.37346H2.58369L2.40083 4.81055L2.21797 5.37346H1.99969C1.95916 5.43487 1.91994 5.49663 1.88052 5.55896L2.10488 5.7217L1.92217 6.28502Z" fill="#EFEFEF"/>
<path d="M4.39009 2.95292L4.8689 3.3008L4.68604 2.73789L5.16485 2.38965H4.82284C4.53236 2.60681 4.25212 2.83664 3.98288 3.07913L3.91068 3.3008L4.39009 2.95292Z" fill="#EFEFEF"/>
<path d="M5.90018 2.30634L6.37919 1.9581L6.85799 2.30634L6.67514 1.74302L7.15394 1.39513H6.56184L6.53702 1.31934C6.33637 1.42184 6.13781 1.52849 5.94375 1.64199L6.08283 1.74297L5.90018 2.30634Z" fill="#EFEFEF"/>
<path d="M6.3792 2.82129L6.56205 3.38405H7.15415L6.67514 3.73229L6.858 4.29561L6.3792 3.94732L5.90019 4.29561L6.08304 3.73229L5.60388 3.38405H6.19613L6.3792 2.82129Z" fill="#EFEFEF"/>
<path d="M6.3792 4.81055L6.56205 5.37331H7.15415L6.67514 5.72155L6.858 6.28487L6.3792 5.93658L5.90019 6.28487L6.08304 5.72155L5.60388 5.37331H6.19613L6.3792 4.81055Z" fill="#EFEFEF"/>
<path d="M6.3792 6.7998L6.56205 7.36272H7.15415L6.67514 7.71081L6.858 8.27413L6.3792 7.92584L5.90019 8.27413L6.08304 7.71081L5.60388 7.36272H6.19613L6.3792 6.7998Z" fill="#EFEFEF"/>
<path d="M6.3792 8.78809L6.56205 9.35136H7.15415L6.67514 9.69944L6.858 10.2628L6.3792 9.91447L5.90019 10.2628L6.08304 9.69944L5.60388 9.35136H6.19613L6.3792 8.78809Z" fill="#EFEFEF"/>
<path d="M8.3683 1.82617L8.55116 2.38929H9.14326L8.66445 2.73758L8.84711 3.30049L8.3683 2.95261L7.88914 3.30049L8.07215 2.73758L7.59299 2.38929H8.18524L8.3683 1.82617Z" fill="#EFEFEF"/>
<path d="M8.3683 3.81543L8.55116 4.37855H9.14326L8.66445 4.72684L8.84711 5.28975L8.3683 4.94187L7.88914 5.28975L8.07215 4.72684L7.59299 4.37855H8.18524L8.3683 3.81543Z" fill="#EFEFEF"/>
<path d="M8.3683 5.80469L8.55116 6.36781H9.14326L8.66445 6.71569L8.84711 7.27901L8.3683 6.93113L7.88914 7.27901L8.07215 6.71569L7.59299 6.36781H8.18524L8.3683 5.80469Z" fill="#EFEFEF"/>
<path d="M8.3683 7.79395L8.55116 8.35727H9.14326L8.66445 8.70495L8.84711 9.26827L8.3683 8.92003L7.88914 9.26827L8.07215 8.70495L7.59299 8.35727H8.18524L8.3683 7.79395Z" fill="#EFEFEF"/>
<path d="M10.3574 0.832031L10.5402 1.39515H11.1323L10.6533 1.74303L10.8362 2.30635L10.3574 1.95806L9.87821 2.30635L10.0612 1.74303L9.58206 1.39515H10.1742L10.3574 0.832031Z" fill="#EFEFEF"/>
<path d="M10.3574 2.82129L10.5402 3.38405H11.1323L10.6533 3.73229L10.8362 4.29561L10.3574 3.94732L9.87821 4.29561L10.0612 3.73229L9.58206 3.38405H10.1742L10.3574 2.82129Z" fill="#EFEFEF"/>
<path d="M10.3574 4.81055L10.5402 5.37331H11.1323L10.6533 5.72155L10.8362 6.28487L10.3574 5.93658L9.87821 6.28487L10.0612 5.72155L9.58206 5.37331H10.1742L10.3574 4.81055Z" fill="#EFEFEF"/>
<path d="M10.3574 6.7998L10.5402 7.36272H11.1323L10.6533 7.71081L10.8362 8.27413L10.3574 7.92584L9.87821 8.27413L10.0612 7.71081L9.58206 7.36272H10.1742L10.3574 6.7998Z" fill="#EFEFEF"/>
<path d="M10.3574 8.78809L10.5402 9.35136H11.1323L10.6533 9.69944L10.8362 10.2628L10.3574 9.91447L9.87821 10.2628L10.0612 9.69944L9.58206 9.35136H10.1742L10.3574 8.78809Z" fill="#EFEFEF"/>
</svg>
