<?xml version="1.0" encoding="utf-8"?><svg xmlns="http://www.w3.org/2000/svg" xmlns:xlink="http://www.w3.org/1999/xlink"><symbol viewBox="0 0 48 69" id="1" xmlns="http://www.w3.org/2000/svg"><path opacity=".1" d="M2.28 69h45.696V54.6H33.288V.36H18.792L.264 17.736 9.96 28.104l4.128-3.744c1.824-1.728 2.688-3.648 2.688-3.648h.192s-.096 2.688-.096 5.28V54.6H2.28V69z"/></symbol><symbol viewBox="0 0 49 70" id="2" xmlns="http://www.w3.org/2000/svg"><path opacity=".1" d="M1.28 70H48.8V55.6H19.136C20 46.768 47.744 42.64 47.744 21.232 47.744 6.64 35.552.208 24.32.208 11.936.208 4.16 7.216.128 14.992l12.48 8.352c2.016-3.84 5.76-7.296 10.176-7.296 3.552 0 7.392 2.016 7.392 6.816 0 9.888-29.664 14.4-29.664 39.744 0 2.304.288 4.704.768 7.392z"/></symbol><symbol viewBox="0 0 50 71" id="3" xmlns="http://www.w3.org/2000/svg"><path opacity=".1" d="M.88 61.128c6.144 6.24 15.168 9.024 23.424 9.024 17.184 0 25.44-11.712 25.44-23.424 0-9.6-6.432-17.664-16.608-19.872l13.92-16.032V.36H3.76v14.4h16.416c4.32 0 6.528-.48 6.528-.48v.192s-2.688 2.496-5.952 6.432l-9.024 10.848 3.552 8.16h4.8c7.392 0 12.768 2.208 12.768 7.584 0 3.744-3.552 6.816-9.792 6.816-5.28 0-10.656-2.784-14.112-6.144L.88 61.128z"/></symbol><symbol viewBox="0 0 42 42" id="armenia" xmlns="http://www.w3.org/2000/svg"><path d="M42 7H0v28h42V7z"/><path d="M42 7H0v9.333h42V7zM42 25.667H0V35h42v-9.333z"/></symbol><symbol viewBox="0 0 38.2 72.1" id="arr-next" xmlns="http://www.w3.org/2000/svg"><path d="M2.1 71.4l35.4-35.3L2.1.7l-.7.7 34.7 34.7L1.4 70.7z"/></symbol><symbol viewBox="0 0 38.2 72.1" id="arr-prev" xmlns="http://www.w3.org/2000/svg"><path d="M36.8 71.4L1.4 36.1 36.8.7l.7.7L2.8 36.1l34.7 34.6z"/></symbol><symbol viewBox="0 0 43 43" id="bulgaria" xmlns="http://www.w3.org/2000/svg"><path d="M43 7.167H0v28.666h43V7.167z"/><path d="M43 7.167H0v9.555h43V7.167zM43 26.278H0v9.555h43v-9.555z"/></symbol><symbol viewBox="0 0 18 18" id="clip" xmlns="http://www.w3.org/2000/svg"><path d="M10.737 13.81V5.728a1.658 1.658 0 0 0-3.316 0v7.048h.414v-7.05a1.244 1.244 0 1 1 2.488 0v8.084a2.073 2.073 0 0 1-4.146 0V4.69a2.902 2.902 0 1 1 5.804 0v7.047h.415V4.69a3.317 3.317 0 0 0-6.634.001v9.12a2.487 2.487 0 1 0 4.975 0z"/></symbol><symbol viewBox="0 0 16 16" id="earth" xmlns="http://www.w3.org/2000/svg"><path d="M15.123 4.364A8.008 8.008 0 0 0 8 0 8.006 8.006 0 0 0 .877 4.366c-.006.01-.012.02-.016.03A7.948 7.948 0 0 0 0 8c0 1.296.312 2.52.86 3.603.005.011.011.02.017.03A8.006 8.006 0 0 0 8 16a8.007 8.007 0 0 0 7.123-4.364l.017-.034A7.947 7.947 0 0 0 16 8a7.947 7.947 0 0 0-.86-3.602c-.005-.012-.012-.023-.018-.034zm-.534 6.766h-3.057c.17-.857.27-1.794.29-2.782h3.465a7.242 7.242 0 0 1-.698 2.782zM8 15.304c-1.1 0-2.087-1.41-2.647-3.478h5.294C10.087 13.894 9.1 15.304 8 15.304zM5.187 11.13a15.163 15.163 0 0 1-.31-2.782h6.246c-.021.987-.13 1.927-.31 2.782H5.187zM.713 8.348h3.465c.02.988.12 1.925.29 2.782H1.41a7.241 7.241 0 0 1-.697-2.782zm.698-3.478h3.057a15.96 15.96 0 0 0-.29 2.782H.713a7.241 7.241 0 0 1 .698-2.782zM8 .696c1.1 0 2.087 1.41 2.647 3.478H5.353C5.913 2.106 6.9.696 8 .696zm2.813 4.174c.18.855.289 1.795.31 2.782H4.877c.021-.987.13-1.927.31-2.782h5.626zm1.009 2.782c-.02-.988-.12-1.925-.29-2.782h3.057c.406.85.65 1.79.698 2.782h-3.465zm2.388-3.478h-2.835c-.352-1.38-.892-2.506-1.553-3.239a7.319 7.319 0 0 1 4.388 3.239zM6.178.935c-.66.733-1.2 1.859-1.553 3.239H1.79A7.32 7.32 0 0 1 6.178.935zM1.79 11.826h2.835c.352 1.38.892 2.506 1.553 3.239a7.32 7.32 0 0 1-4.388-3.239zm8.032 3.239c.66-.733 1.2-1.859 1.553-3.239h2.835a7.32 7.32 0 0 1-4.388 3.239z"/></symbol><symbol viewBox="0 0 18 18" id="facebook" xmlns="http://www.w3.org/2000/svg"><path d="M10.451 17.883zm.18-.031l-.107.019.107-.019zm-.607.089zm.173-.021zm.679-.116l-.095.02.095-.02zm.608-.152l-.076.022.076-.022zm-.184.051l-.083.021.083-.021zm-.24.06l-.09.02.09-.02zm-1.303.205zM18 9A9.001 9.001 0 0 0 0 9a9 9 0 0 0 9 9l.158-.002v-7.006H7.225V8.738h1.933V7.08c0-1.923 1.174-2.97 2.89-2.97.821 0 1.527.062 1.733.089v2.01h-1.183c-.933 0-1.114.443-1.114 1.094v1.435h2.232l-.291 2.254h-1.94v6.66C15.245 16.574 18 13.108 18 9zm-8.405 8.98zm-.287.014z"/></symbol><symbol id="fb" viewBox="0 0 172.9 172.9" xmlns="http://www.w3.org/2000/svg"><style>.akst0{fill:#341209}</style><path class="akst0" d="M172.5.5c.2.9.4 1.6.4 2.3v168c0 .5-.3 1-.5 1.6-.6.2-1.1.5-1.6.5H2.2c-.5 0-1-.3-1.6-.5-.2-.6-.5-1.1-.5-1.6V.8C1.3.5 2.3.2 3.4.1 4.6 0 6 0 7.3 0h158.3c2.2.1 4.5-.2 6.9.5zM159.9 13c-2.9-.1-5.1-.2-7.4-.2h-132c-1.3 0-2.7-.1-4 0-1.1.1-2.1.3-3.5.5-.1 2.2-.2 4-.2 5.9v134.3c0 2-.5 4.2.7 6.3 1.1.1 2.2.3 3.3.3h76c1.1 0 2.2-.3 3.5-.6v-52.2c0-.9-.2-1.8-.4-3-1.7-.1-3.2-.3-4.6-.3H73.6c-1.3 0-2.6-.2-3.8-.4-.9-5.7-.9-8 .3-12.1 8.4-.7 16.9.3 25.3-.5 1.3-2 .8-4 .9-5.8.3-5.7.4-11.4.9-17.1.8-10.1 6.4-16.9 15.4-21 4.4-2 9-3.1 13.8-3.5 4.7-.4 9.4-.9 14.3.4-.2 4.1-.4 8-1.7 12.1h-7.1c-4 0-7.9.8-11.8 1.9-6.6 2-10.3 6.2-10.5 13.2-.1 5.7-.3 11.4-.4 17.1 0 .9.4 1.7.6 2.8 2.2.1 4.1.2 5.9.2h16.6c1.1 0 2.1.3 3.4.5.1 4.2.8 8.1-.5 12.2-4.4 0-8.6-.1-12.7 0-4.3.1-8.7-.7-12.9.5-.7 6.2-.5 50.5.2 55.2.6.1 1.3.3 2.1.3h45.7c.7 0 1.4-.4 2.2-.6.1-48.6.1-97.2.1-146.4z"/></symbol><symbol viewBox="0 0 828 1143" class="alfragment" id="fragment" xmlns="http://www.w3.org/2000/svg"><path class="alfragment-path" d="M265.915 615.86c-8.816 15.894-15.311 33.391-19.069 52.229-18.386 93.209 40.812 185.775 133.083 208.271 97.103 23.687 194.507-36.801 216.663-133.984 3.725-16.339 5.121-32.673 4.281-48.621-2.568-51.17 19.675-100.436 59.902-131.988 46.207-36.185 80.545-88.241 93.753-150.492 28.856-136.388-56.911-272.621-192.464-305.534-140.789-34.287-281.899 53.379-314.028 194.303-13.592 60.014-5.231 119.937 19.933 171.34 22.401 45.849 22.635 99.798-2.054 144.476z"/></symbol><symbol viewBox="0 0 636 921" class="amfragment amfragment_about" id="fragment_about_1" xmlns="http://www.w3.org/2000/svg"><path class="amfragment-path_about_1" d="M814.735 481.606c118.608-24.693 7.7-95.28 71.922-132.626 99.353-57.775 172.903-202.852 135.173-312.605-33.38-97.13-180.812-176.427-279.183-160.345C632.206-105.915 563.215 17.857 556.064 88.146c-9.666 95.019-34.481 152.148-158.257 159.82-97.889 6.067-187.834 39.541-238.865 77.559-92.225 68.706-152.2 184.746-98.56 326.135 53.638 141.388 260.094 210.843 406.375 160.396s190.754-161.632 205.81-216.848c13.462-49.222 94.122-96.361 142.168-113.602z" fill-opacity=".08"/></symbol><symbol viewBox="0 0 270 568" class="anfragment anfragment_about" id="fragment_about_2" xmlns="http://www.w3.org/2000/svg"><path class="anfragment-path_about_2" d="M102.837 294.559c6.779-5.211 53.149-29.774 76.235-55.401 35.714-39.646 47.625-114.217 15.367-157.376C165.89 43.587 96.472 9.662 35.117 24.354c-50.529 12.098-141.501 57.428-114.5 137.5 14.168 42.019 60.881 92.336 23.965 106.613-36.916 14.276-77.414 44.149-94.574 68.2-31.011 43.465-33.496 103.101 6.798 153.607 40.295 50.506 139.515 93.56 194.88 11.579 16.908-23.027 10.16-86.326 0-124.499-10.162-38.174 32.36-68.352 51.151-82.795z" fill-opacity=".08"/></symbol><symbol viewBox="0 0 303 928" class="aofragment aofragment_about" id="fragment_about_3" xmlns="http://www.w3.org/2000/svg"><path class="aofragment-path_about_3" d="M460.937 415.22c38.775-50.151 76.496-34.393 128.009-63.314 91.728-51.5 99.952-182.736 54.901-272.914-39.869-79.807-151.272-94.59-223.011-62.976-80.542 35.493-113.834 156.942-108.59 220.24 7.09 85.568-2.977 140.38-95.144 169.071C144.21 428.018 81.456 473.489 48.73 516.079c-59.142 76.967-67.083 181.528-5.244 296.806 61.838 115.278 208.296 148.477 310.96 78.05 102.665-70.427 81.575-208.289 84.573-259.684 2.702-45.823-33.736-144.049 21.918-216.031z" fill-opacity=".08"/></symbol><symbol viewBox="0 0 710 875" class="apfragment apfragment_about" id="fragment_about_4" xmlns="http://www.w3.org/2000/svg"><path class="apfragment-path_about_4" d="M233.078 319.017c-26.1-51.558-.008-81.945-4.609-138.893C220.277 78.719 118.551 30.845 30.474 45.281-47.473 58.056-99.2 157.526-99.703 234.18c-.564 86.06 84.368 154.338 136.735 168.83 70.791 19.59 110.9 45.776 100.743 140.605-8.033 74.997 5.738 147.508 27.975 191.103 40.188 78.786 120.739 118.225 234.853 95.805 114.115-22.42 193.098-148.974 173.73-266.386-19.369-117.412-136.887-139.95-176.806-158.49-35.58-16.558-126.987-12.628-164.449-86.63z" fill-opacity=".08"/></symbol><symbol viewBox="0 0 456 901" class="aqfragment aqfragment_contacts" id="fragment_contacts_3" xmlns="http://www.w3.org/2000/svg"><path class="aqfragment-path-cont" d="M485.078 319.017c-26.1-51.558-.008-81.945-4.609-138.893C472.277 78.719 370.551 30.845 282.474 45.281 204.527 58.056 152.799 157.526 152.297 234.18c-.564 86.06 84.368 154.338 136.735 168.83 70.791 19.59 110.9 45.776 100.743 140.605-8.033 74.997 5.738 147.508 27.975 191.103 40.188 78.786 120.739 118.225 234.853 95.805 114.115-22.42 193.098-148.974 173.73-266.386-19.369-117.412-136.887-139.95-176.806-158.49-35.58-16.558-126.987-12.628-164.449-86.63z" fill-opacity=".08"/></symbol><symbol viewBox="0 0 42 42" id="georgia" xmlns="http://www.w3.org/2000/svg"><path d="M42 7H0v28h42V7z"/><path d="M23.625 7h-5.25v11.375H0v5.25h18.375V35h5.25V23.625H42v-5.25H23.625V7z"/><path d="M10.1 11.774V9.948H8.276v1.826H6.449V13.6h1.826v1.827H10.1V13.6h1.826v-1.826H10.1zm23.625 0V9.948H31.9v1.826h-1.826V13.6H31.9v1.827h1.826V13.6h1.826v-1.826h-1.826zM10.1 28.399v-1.826H8.276v1.826H6.449v1.826h1.826v1.826H10.1v-1.826h1.826V28.4H10.1zm23.625 0v-1.826H31.9v1.826h-1.826v1.826H31.9v1.826h1.826v-1.826h1.826V28.4h-1.826z"/></symbol><symbol viewBox="0 0 19 18" id="instagram" xmlns="http://www.w3.org/2000/svg"><path d="M11.223 9a1.723 1.723 0 1 1-3.446 0 1.723 1.723 0 0 1 3.446 0z"/><path d="M13.529 5.953a1.6 1.6 0 0 0-.387-.595 1.6 1.6 0 0 0-.594-.386c-.182-.071-.456-.155-.96-.178-.545-.025-.708-.03-2.088-.03-1.38 0-1.543.005-2.088.03-.504.023-.778.107-.96.178a1.599 1.599 0 0 0-.594.386 1.6 1.6 0 0 0-.387.595c-.07.182-.155.455-.178.96-.024.544-.03.708-.03 2.088 0 1.38.006 1.543.03 2.088.023.504.107.777.178.96.083.224.215.427.387.594a1.6 1.6 0 0 0 .594.386c.182.071.456.155.96.178.545.025.708.03 2.088.03 1.38 0 1.543-.005 2.088-.03.504-.023.778-.107.96-.178.45-.174.807-.53.98-.98.071-.183.156-.456.179-.96.025-.545.03-.709.03-2.088 0-1.38-.005-1.544-.03-2.089-.023-.504-.107-.777-.178-.96zM9.5 11.654a2.654 2.654 0 1 1 0-5.307 2.654 2.654 0 0 1 0 5.307zm2.759-4.792a.62.62 0 1 1 0-1.24.62.62 0 0 1 0 1.24z"/><path d="M9.5 0a9.001 9.001 0 0 0 0 18 9.001 9.001 0 0 0 0-18zm5.137 11.13c-.025.55-.113.926-.24 1.255a2.642 2.642 0 0 1-1.512 1.512c-.329.127-.704.215-1.254.24-.551.025-.727.031-2.13.031-1.404 0-1.58-.006-2.132-.031-.55-.025-.925-.113-1.254-.24A2.533 2.533 0 0 1 5.2 13.3a2.534 2.534 0 0 1-.596-.915c-.128-.329-.216-.704-.24-1.254-.026-.551-.032-.728-.032-2.131 0-1.404.006-1.58.031-2.13.025-.55.113-.926.24-1.255.13-.345.334-.657.597-.915.258-.263.57-.467.915-.597.329-.127.704-.215 1.254-.24.551-.025.728-.031 2.131-.031 1.403 0 1.58.006 2.13.031.55.025.926.113 1.255.24.345.13.657.334.916.597.262.258.466.57.596.915.127.329.215.704.24 1.254.025.551.031.728.031 2.131 0 1.403-.006 1.58-.031 2.13z"/></symbol><symbol viewBox="0 0 28 28" id="linkedin" xmlns="http://www.w3.org/2000/svg"><path d="M14 0C6.27 0 0 6.27 0 14s6.27 14 14 14 14-6.27 14-14S21.73 0 14 0zM9.932 21.164h-3.41V10.906h3.41v10.258zM8.227 9.505h-.022c-1.144 0-1.884-.787-1.884-1.772 0-1.006.762-1.772 1.929-1.772 1.166 0 1.884.766 1.906 1.772 0 .985-.74 1.772-1.929 1.772zm14 11.66h-3.41v-5.489c0-1.379-.494-2.32-1.727-2.32-.942 0-1.503.635-1.75 1.248-.09.219-.112.525-.112.832v5.728h-3.41s.045-9.296 0-10.258h3.41v1.452c.453-.699 1.264-1.693 3.073-1.693 2.243 0 3.925 1.466 3.925 4.617v5.882z"/></symbol><symbol viewBox="0 0 18 14" id="mail" xmlns="http://www.w3.org/2000/svg"><path d="M16.5 0h-15C.673 0 0 .686 0 1.53v10.705c0 .844.673 1.53 1.5 1.53h15c.827 0 1.5-.686 1.5-1.53V1.53C18 .686 17.327 0 16.5 0zM1.5.765h15c.055 0 .104.02.156.032A2025.578 2025.578 0 0 1 9.544 7.41c-.118.108-.308.237-.544.237-.236 0-.426-.13-.545-.238A2041.4 2041.4 0 0 1 1.344.797c.052-.012.1-.032.156-.032zm-.75 11.47V1.53c0-.074.022-.142.042-.21.994.927 3.998 3.73 5.947 5.536-1.942 1.7-4.948 4.605-5.95 5.58-.017-.065-.039-.129-.039-.2zM16.5 13h-15c-.06 0-.113-.021-.17-.035 1.036-1.006 4.06-3.928 5.968-5.592l.655.604c.31.285.671.435 1.047.435.376 0 .738-.15 1.046-.434l.656-.605c1.908 1.664 4.931 4.585 5.967 5.592-.056.014-.109.035-.169.035zm.75-.765c0 .07-.022.135-.04.2-1.002-.975-4.007-3.88-5.949-5.58a3041.67 3041.67 0 0 0 5.947-5.537c.02.068.042.136.042.211v10.706z"/></symbol><symbol viewBox="0 0 8 12" id="next" xmlns="http://www.w3.org/2000/svg"><path d="M1 1.101l6 5-6 5" stroke-width=".636"/></symbol><symbol viewBox="0 0 22 28" id="pdf-icon" xmlns="http://www.w3.org/2000/svg"><path d="M21.459 5.883l-.373-.372L16.213.638l-.372-.372A.913.913 0 0 0 15.2 0H1.189C.616 0 0 .442 0 1.413v25.622c0 .404.406.797.887.922.024.006.048.015.073.02.075.015.152.023.229.023h19.346c.077 0 .154-.008.23-.023.024-.005.048-.014.072-.02.48-.125.887-.518.887-.922V6.748c0-.37-.044-.644-.265-.865zm-1.456-.09h-4.072V1.721l4.072 4.072zM1.19 27.035c-.034 0-.065-.013-.096-.024a.221.221 0 0 1-.127-.2v-7.018H20.76v7.018a.222.222 0 0 1-.128.2c-.03.01-.062.024-.096.024H1.19zm-.223-8.207V1.413c0-.105.015-.447.223-.447h13.804a.745.745 0 0 0-.027.188V6.76h5.604a.74.74 0 0 0 .188-.028v12.097H.967z"/><path d="M7.503 21.6a1.659 1.659 0 0 0-.545-.296 1.962 1.962 0 0 0-.613-.1h-1.4v4.865h.793v-1.756h.588c.254 0 .488-.037.699-.112a1.56 1.56 0 0 0 .541-.317c.15-.136.266-.304.35-.505.084-.2.126-.423.126-.67 0-.233-.05-.443-.149-.63a1.55 1.55 0 0 0-.39-.478zm-.3 1.608a.723.723 0 0 1-.452.475.874.874 0 0 1-.287.05h-.726v-1.928h.593c.203 0 .365.032.489.096a.799.799 0 0 1 .287.237.79.79 0 0 1 .135.297 1.486 1.486 0 0 1-.04.772zm5.085-1.291a2.234 2.234 0 0 0-.773-.518c-.31-.13-.67-.194-1.079-.194H8.971v4.864h1.841c.062 0 .156-.008.284-.023a1.95 1.95 0 0 0 .423-.106 2.21 2.21 0 0 0 .478-.248c.165-.11.313-.26.446-.452.132-.192.24-.43.327-.713.085-.284.128-.626.128-1.026 0-.29-.05-.574-.151-.849a2.14 2.14 0 0 0-.46-.735zm-.578 3.056c-.237.343-.624.515-1.161.515h-.786v-3.683h.462c.379 0 .687.05.924.148.238.1.426.23.565.39.138.16.231.34.28.538.049.198.073.398.073.6 0 .652-.12 1.15-.357 1.492zm2.337 1.096h.806v-2.191h2.033v-.541h-2.033v-1.532h2.237v-.6h-3.043v4.864zm1.366-14.984a9.31 9.31 0 0 0-1.62.172c-.884-.937-1.806-2.306-2.457-3.65.645-2.718.322-3.103.18-3.284-.152-.193-.366-.506-.609-.506-.102 0-.38.046-.49.083-.278.092-.428.307-.548.586-.341.798.127 2.159.61 3.207a32.404 32.404 0 0 1-1.83 5.19c-1.83.838-2.801 1.66-2.889 2.446-.032.286.036.706.538 1.083a.775.775 0 0 0 .467.157c.423 0 .85-.323 1.343-1.017.36-.506.747-1.196 1.15-2.052a23.125 23.125 0 0 1 4.262-1.363c.763.733 1.446 1.104 2.033 1.104.433 0 .804-.2 1.072-.575.28-.392.343-.742.188-1.043-.186-.362-.644-.538-1.4-.538zm-8.637 4.67c-.226-.174-.213-.291-.208-.335.03-.268.45-.745 1.482-1.325-.782 1.445-1.202 1.636-1.274 1.66zm3.958-11.067c.021-.006.505.532.047 1.553-.689-.704-.094-1.537-.047-1.553zm-.997 7.737c.49-1.168.945-2.457 1.29-3.652.543.975 1.194 1.92 1.846 2.677-1.03.242-2.127.583-3.136.975zm6.228-.231c-.15.208-.472.213-.585.213-.257 0-.353-.153-.746-.456a6.95 6.95 0 0 1 .874-.052c.43 0 .508.063.567.095a.753.753 0 0 1-.11.2z"/></symbol><symbol viewBox="0 0 18 18" id="phone" xmlns="http://www.w3.org/2000/svg"><path d="M17.528 13.886l-3.644-2.43a1.063 1.063 0 0 0-1.424.232l-1.06 1.364a.453.453 0 0 1-.582.123l-.202-.112c-.67-.364-1.502-.818-3.18-2.497C5.76 8.888 5.304 8.055 4.94 7.386l-.11-.201a.454.454 0 0 1 .12-.584L6.311 5.54c.436-.342.537-.962.231-1.424L4.113.472a1.058 1.058 0 0 0-1.425-.32l-1.524.915a2.15 2.15 0 0 0-.98 1.271c-.548 2-.136 5.45 4.946 10.532C9.173 16.913 12.182 18 14.25 18c.477.002.95-.06 1.41-.184.535-.15.991-.501 1.272-.98l.916-1.523a1.058 1.058 0 0 0-.32-1.427zm-.197 1.12l-.913 1.523c-.202.346-.53.6-.915.709-1.846.507-5.07.087-9.948-4.792C.675 7.566.256 4.343.763 2.497c.11-.385.364-.714.71-.916L2.996.667a.459.459 0 0 1 .62.14l1.319 1.98L6.043 4.45a.463.463 0 0 1-.1.618l-1.364 1.06A1.05 1.05 0 0 0 4.3 7.476l.108.197c.383.703.86 1.578 2.6 3.317 1.74 1.74 2.614 2.217 3.317 2.6l.197.109a1.05 1.05 0 0 0 1.348-.278l1.06-1.364a.462.462 0 0 1 .618-.1l3.643 2.43a.459.459 0 0 1 .14.618z"/></symbol><symbol viewBox="0 0 8 12" id="prev" xmlns="http://www.w3.org/2000/svg"><path d="M7 10.899l-6-5 6-5" stroke-width=".636"/></symbol><symbol viewBox="0 0 42 41" id="ukraine" xmlns="http://www.w3.org/2000/svg"><path d="M42 6.834H0v27.332h42V6.834z"/><path d="M42 6.834H0V20.5h42V6.834z"/></symbol><symbol viewBox="0 0 43 43" id="uzbekistan" xmlns="http://www.w3.org/2000/svg"><path d="M43 7.167H0v28.666h43V7.167z"/><path d="M43 27.109H0v8.724h43V27.11zM43 7.167H0v8.778h43V7.167zM43 17.71H0v7.53h43v-7.53z"/><path d="M43 7.167H0v8.778h43V7.167z"/><path d="M15.847 11.555c0-1.342.943-2.464 2.203-2.739a2.804 2.804 0 1 0 0 5.478 2.805 2.805 0 0 1-2.203-2.739zm3.86 1.275l.19.584h.615l-.497.361.19.585-.497-.361-.497.36.19-.584-.498-.36h.615l.19-.585zm1.961 0l.19.584h.615l-.497.361.19.585-.498-.361-.497.36.19-.584-.497-.36h.614l.19-.585zm1.962 0l.19.584h.614l-.497.361.19.585-.498-.361-.497.36.19-.584-.497-.36h.614l.19-.585zm1.96 0l.19.584h.614l-.497.361.19.585-.497-.361-.497.36.19-.584-.497-.36h.614l.19-.585zm1.96 0l.19.584h.615l-.497.361.19.585-.497-.361-.497.36.19-.584-.497-.36h.614l.19-.585zm-5.882-2.04l.19.585h.615l-.497.36.19.585-.498-.36-.497.36.19-.584-.497-.361h.614l.19-.585zm1.962 0l.19.585h.614l-.497.36.19.585-.498-.36-.497.36.19-.584-.497-.361h.614l.19-.585zm1.96 0l.19.585h.614l-.497.36.19.585-.497-.36-.497.36.19-.584-.497-.361h.614l.19-.585zm1.96 0l.19.585h.615l-.497.36.19.585-.497-.36-.497.36.19-.584-.497-.361h.614l.19-.585zm-3.92-2.039l.19.584h.614l-.497.361.19.585-.498-.362-.497.362.19-.585-.497-.36h.614l.19-.585zm1.96 0l.19.584h.614l-.497.361.19.585-.497-.362-.497.362.19-.585-.497-.36h.614l.19-.585zm1.96 0l.19.584h.615l-.497.361.19.585-.497-.362-.497.362.19-.585-.497-.36h.614l.19-.585z"/></symbol><symbol viewBox="0 0 28 28" id="youtube" xmlns="http://www.w3.org/2000/svg"><path d="M12.256 16.623L16.81 14l-4.554-2.623v5.246z"/><path d="M14 0C6.27 0 0 6.27 0 14s6.27 14 14 14 14-6.27 14-14S21.73 0 14 0zm8.748 14.014s0 2.84-.36 4.209a2.192 2.192 0 0 1-1.542 1.542c-1.37.36-6.846.36-6.846.36s-5.462 0-6.846-.375a2.192 2.192 0 0 1-1.542-1.542c-.36-1.354-.36-4.208-.36-4.208s0-2.84.36-4.208a2.237 2.237 0 0 1 1.542-1.557c1.37-.36 6.846-.36 6.846-.36s5.476 0 6.846.375a2.19 2.19 0 0 1 1.542 1.542c.374 1.369.36 4.222.36 4.222z"/></symbol></svg>