<svg width="50" height="71" viewBox="0 0 50 71" fill="none" xmlns="http://www.w3.org/2000/svg">
<path opacity="0.1" d="M0.88 61.128C7.024 67.368 16.048 70.152 24.304 70.152C41.488 70.152 49.744 58.44 49.744 46.728C49.744 37.128 43.312 29.064 33.136 26.856L47.056 10.824V0.359997H3.76V14.76H20.176C24.496 14.76 26.704 14.28 26.704 14.28V14.472C26.704 14.472 24.016 16.968 20.752 20.904L11.728 31.752L15.28 39.912H20.08C27.472 39.912 32.848 42.12 32.848 47.496C32.848 51.24 29.296 54.312 23.056 54.312C17.776 54.312 12.4 51.528 8.944 48.168L0.88 61.128Z" fill="#00AEFF"/>
</svg>
