<svg width="18" height="18" viewBox="0 0 18 18" fill="none" xmlns="http://www.w3.org/2000/svg">
<path d="M10.7374 13.8109L10.7374 5.72683C10.7374 4.81097 9.99491 4.0685 9.07905 4.0685C8.16319 4.0685 7.42073 4.81097 7.42073 5.72683L7.42073 12.7746L7.83538 12.7745L7.83524 5.72683C7.83524 5.03988 8.3921 4.48301 9.07905 4.48301C9.766 4.48301 10.3229 5.03988 10.3229 5.72683L10.3229 13.8109C10.3229 14.9558 9.39477 15.8839 8.24989 15.8839C7.10501 15.8839 6.17691 14.9558 6.17691 13.8109L6.17691 4.69056C6.17691 3.08775 7.47624 1.78842 9.07905 1.78842C10.6819 1.78842 11.9812 3.08775 11.9812 4.69056L11.981 11.7382L12.3956 11.7382L12.3956 4.69041C12.3953 2.85853 10.9101 1.37367 9.07817 1.37391C7.24629 1.37415 5.76144 2.85941 5.76167 4.69129L5.76241 13.8109C5.76241 15.1847 6.8761 16.2984 8.24989 16.2984C9.6237 16.2984 10.7374 15.1847 10.7374 13.8109Z" fill="#212121"/>
</svg>
