<svg width="18" height="18" viewBox="0 0 18 18" fill="none" xmlns="http://www.w3.org/2000/svg">
<g>
<path d="M10.4513 17.8828C10.3763 17.895 10.3011 17.9063 10.2256 17.9166C10.3011 17.9063 10.3763 17.895 10.4513 17.8828Z"/>
<path d="M10.6313 17.8521C10.5955 17.8586 10.5597 17.8647 10.5239 17.8709C10.5597 17.8647 10.5955 17.8586 10.6313 17.8521Z"/>
<path d="M10.0244 17.9414C9.93661 17.9513 9.84831 17.9601 9.75974 17.9675C9.84831 17.9601 9.93661 17.9513 10.0244 17.9414Z"/>
<path d="M10.1972 17.9204C10.1551 17.926 10.1126 17.9313 10.0703 17.9362C10.1126 17.9313 10.1551 17.926 10.1972 17.9204Z"/>
<path d="M10.8762 17.8037C10.8447 17.8104 10.8129 17.8172 10.7812 17.8236C10.8129 17.8172 10.8447 17.8104 10.8762 17.8037Z"/>
<path d="M11.4843 17.6523C11.4588 17.6596 11.4332 17.6665 11.4077 17.6736C11.4332 17.6665 11.4588 17.6596 11.4843 17.6523Z"/>
<path d="M11.3005 17.7026C11.2728 17.7099 11.2449 17.7173 11.217 17.7243C11.2449 17.7173 11.2728 17.7101 11.3005 17.7026Z"/>
<path d="M11.0597 17.7627C11.0303 17.7696 11.0006 17.776 10.9709 17.7826C11.0006 17.776 11.0303 17.7696 11.0597 17.7627Z"/>
<path d="M9.75699 17.9678C9.70961 17.9718 9.66223 17.9753 9.61472 17.9785C9.66223 17.9753 9.70961 17.9718 9.75699 17.9678Z"/>
<path d="M18 9C18 4.0302 13.9698 0 9 0C4.0302 0 0 4.0302 0 9C0 13.9698 4.0302 18 9 18C9.05287 18 9.10547 17.9989 9.1582 17.9979V10.9918H7.22461V8.73839H9.1582V7.08014C9.1582 5.15698 10.3322 4.11026 12.0477 4.11026C12.8692 4.11026 13.5754 4.17151 13.7812 4.19884V6.20879H12.5983C11.665 6.20879 11.4843 6.65236 11.4843 7.30316V8.73839H13.7159L13.425 10.9918H11.4843V17.6523C15.2461 16.5738 18 13.1081 18 9Z"/>
<path d="M9.5946 17.98C9.50095 17.986 9.40688 17.9908 9.31253 17.994C9.40688 17.9908 9.50095 17.986 9.5946 17.98Z"/>
<path d="M9.30762 17.9941C9.2579 17.9958 9.20805 17.997 9.1582 17.9978C9.20805 17.997 9.2579 17.9958 9.30762 17.9941Z"/>
</g>
</svg>
