<svg width="636" height="921" viewBox="0 0 636 921" fill="none" xmlns="http://www.w3.org/2000/svg" class="fragment fragment_about">
<path d="M814.735 481.606C933.343 456.913 822.435 386.326 886.657 348.98C986.01 291.205 1059.56 146.128 1021.83 36.375C988.45 -60.7557 841.018 -140.052 742.647 -123.97C632.206 -105.915 563.215 17.8565 556.064 88.1458C546.398 183.165 521.583 240.294 397.807 247.966C299.918 254.033 209.973 287.507 158.942 325.525C66.717 394.231 6.74209 510.271 60.3812 651.66C114.02 793.048 320.476 862.503 466.757 812.056C613.038 761.609 657.511 650.424 672.567 595.208C686.029 545.986 766.689 498.847 814.735 481.606Z" fill="#009BDF" fill-opacity="0.08"/>
</svg>
