<svg width="270" height="568" viewBox="0 0 270 568" id="fragment-about-2" fill="none" xmlns="http://www.w3.org/2000/svg" class="fragment fragment_about">
<path class="fragment-path_about_2" d="M102.837 294.559C109.616 289.348 155.986 264.785 179.072 239.158C214.786 199.512 226.697 124.941 194.439 81.782C165.89 43.587 96.4717 9.66284 35.1165 24.3536C-15.4115 36.452 -106.384 81.782 -79.3836 161.854C-65.2151 203.873 -18.5018 254.19 -55.4178 268.467C-92.3338 282.743 -132.832 312.616 -149.992 336.667C-181.003 380.132 -183.488 439.768 -143.194 490.274C-102.899 540.78 -3.67906 583.834 51.6853 501.853C68.5945 478.826 61.8466 415.527 51.6853 377.354C41.524 339.18 84.0464 309.002 102.837 294.559Z" fill="#009BDF" fill-opacity="0.08"/>
</svg>
