<svg width="303" height="928" viewBox="0 0 303 928" fill="none" id="fragment-about-3" xmlns="http://www.w3.org/2000/svg" class="fragment fragment_about">
<path class="fragment-path_about_3" d="M460.937 415.22C499.712 365.069 537.433 380.827 588.946 351.906C680.674 300.406 688.898 169.17 643.847 78.9921C603.978 -0.814843 492.575 -15.5987 420.836 16.0156C340.294 51.5091 307.002 172.958 312.246 236.256C319.336 321.824 309.269 376.636 217.102 405.327C144.21 428.018 81.4558 473.489 48.7299 516.079C-10.4124 593.046 -18.3531 697.607 43.4857 812.885C105.324 928.163 251.782 961.362 354.446 890.935C457.111 820.508 436.021 682.646 439.019 631.251C441.721 585.428 405.283 487.202 460.937 415.22Z" fill="#009BDF" fill-opacity="0.08"/>
</svg>
