<svg width="456" height="901" id="fragment-contacts" viewBox="0 0 456 901" fill="none" xmlns="http://www.w3.org/2000/svg" class="fragment fragment_contacts">
<path class="fragment-path-cont" d="M485.078 319.017C458.978 267.459 485.07 237.072 480.469 180.124C472.277 78.7186 370.551 30.8451 282.474 45.2807C204.527 58.0561 152.799 157.526 152.297 234.18C151.733 320.24 236.665 388.518 289.032 403.01C359.823 422.6 399.932 448.786 389.775 543.615C381.742 618.612 395.513 691.123 417.75 734.718C457.938 813.504 538.489 852.943 652.603 830.523C766.718 808.103 845.701 681.549 826.333 564.137C806.964 446.725 689.446 424.187 649.527 405.647C613.947 389.089 522.54 393.019 485.078 319.017Z" fill="#009BDF" fill-opacity="0.08"/>
</svg>
