<svg viewBox="0 0 828 1143" fill="#000" xmlns="http://www.w3.org/2000/svg" id="fragment" class="fragment">
<path class="fragment-path" d="M265.915 615.86C257.099 631.754 250.604 649.251 246.846 668.089C228.46 761.298 287.658 853.864 379.929 876.36C477.032 900.047 574.436 839.559 596.592 742.376C600.317 726.037 601.713 709.703 600.873 693.755C598.305 642.585 620.548 593.319 660.775 561.767C706.982 525.582 741.32 473.526 754.528 411.275C783.384 274.887 697.617 138.654 562.064 105.741C421.275 71.4542 280.165 159.12 248.036 300.044C234.444 360.058 242.805 419.981 267.969 471.384C290.37 517.233 290.604 571.182 265.915 615.86Z"/>
</svg>
