<svg width="710" height="875" viewBox="0 0 710 875" fill="none" xmlns="http://www.w3.org/2000/svg" class="fragment fragment_about">
<path d="M233.078 319.017C206.978 267.459 233.07 237.072 228.469 180.124C220.277 78.7186 118.551 30.8451 30.4744 45.2807C-47.4725 58.0561 -99.2011 157.526 -99.7034 234.18C-100.267 320.24 -15.3348 388.518 37.0317 403.01C107.823 422.6 147.932 448.786 137.775 543.615C129.742 618.612 143.513 691.123 165.75 734.718C205.938 813.504 286.489 852.943 400.603 830.523C514.718 808.103 593.701 681.549 574.333 564.137C554.964 446.725 437.446 424.187 397.527 405.647C361.947 389.089 270.54 393.019 233.078 319.017Z" fill="#009BDF" fill-opacity="0.08"/>
</svg>
