<svg width="42" height="42" viewBox="0 0 42 42" fill="none" xmlns="http://www.w3.org/2000/svg">
<path d="M42 7H0V35.0003H42V7Z" fill="#F0F0F0"/>
<path d="M23.625 6.99976H18.375V18.3747H0V23.6247H18.375V34.9996H23.625V23.6247H42V18.3747H23.625V6.99976Z" fill="#D80027"/>
<path d="M10.1008 11.7743V9.94824H8.27483V11.7743H6.44873V13.6004H8.27483V15.4265H10.1008V13.6004H11.9269V11.7743H10.1008Z" fill="#D80027"/>
<path d="M33.7254 11.7743V9.94824H31.8993V11.7743H30.0732V13.6004H31.8993V15.4265H33.7254V13.6004H35.5515V11.7743H33.7254Z" fill="#D80027"/>
<path d="M10.1008 28.399V26.5729H8.27483V28.399H6.44873V30.2251H8.27483V32.0512H10.1008V30.2251H11.9269V28.399H10.1008Z" fill="#D80027"/>
<path d="M33.7254 28.399V26.5729H31.8993V28.399H30.0732V30.2251H31.8993V32.0512H33.7254V30.2251H35.5515V28.399H33.7254Z" fill="#D80027"/>
</svg>
