<svg width="18" height="14" viewBox="0 0 18 14" fill="none" xmlns="http://www.w3.org/2000/svg">
<path d="M16.5 0H1.50001C0.672715 0 0 0.685905 0 1.52942V12.2353C0 13.0788 0.672715 13.7647 1.50001 13.7647H16.5C17.3273 13.7647 18 13.0788 18 12.2353V1.52942C18 0.685905 17.3273 0 16.5 0ZM1.50001 0.764694H16.5C16.5553 0.764694 16.604 0.785234 16.6558 0.796848C15.3572 2.00868 11.0511 6.02525 9.54422 7.40957C9.4263 7.51786 9.23625 7.64705 9.00004 7.64705C8.76382 7.64705 8.57377 7.51786 8.45547 7.40921C6.9487 6.02511 2.64238 2.00832 1.34395 0.796919C1.39591 0.785305 1.44471 0.764694 1.50001 0.764694ZM0.749988 12.2353V1.52942C0.749988 1.45451 0.772137 1.38654 0.791965 1.31808C1.7859 2.24562 4.7905 5.04817 6.73871 6.85454C4.79682 8.5553 1.79146 11.4605 0.789609 12.4346C0.771926 12.3696 0.749988 12.306 0.749988 12.2353ZM16.5 13H1.50001C1.44011 13 1.38684 12.9787 1.33091 12.9651C2.36616 11.9588 5.39065 9.03692 7.2984 7.37286C7.5471 7.60288 7.77428 7.81262 7.95336 7.97715C8.26246 8.26169 8.62425 8.41178 9 8.41178C9.37575 8.41178 9.73754 8.26166 10.0463 7.97751C10.2254 7.8129 10.4528 7.60299 10.7016 7.37286C12.6095 9.03674 15.6335 11.9584 16.6691 12.9651C16.6132 12.9787 16.56 13 16.5 13ZM17.25 12.2353C17.25 12.3059 17.2281 12.3696 17.2104 12.4346C16.2082 11.46 13.2032 8.55512 11.2613 6.85457C13.2096 5.04821 16.2137 2.24591 17.208 1.31801C17.2279 1.38647 17.25 1.45447 17.25 1.52939V12.2353Z"/>
</svg>
