<svg width="22" height="28" viewBox="0 0 22 28" fill="none" xmlns="http://www.w3.org/2000/svg">
<path d="M21.4586 5.88338L21.0864 5.51117L16.213 0.637724L15.8408 0.265517C15.6723 0.0970345 15.4386 0 15.1997 0H1.18903C0.616483 0 0 0.442207 0 1.41255V18.8276V26.811V27.0345C0 27.4386 0.406483 27.8325 0.88731 27.9566C0.911448 27.9628 0.934621 27.972 0.959724 27.9768C1.03503 27.9918 1.11179 28 1.18903 28H20.5351C20.6123 28 20.6891 27.9918 20.7644 27.9768C20.7895 27.972 20.8127 27.9628 20.8368 27.9566C21.3177 27.8325 21.7241 27.4386 21.7241 27.0345V26.811V18.8276V6.748C21.7241 6.37772 21.6797 6.10448 21.4586 5.88338ZM20.0031 5.7931H15.931V1.72103L20.0031 5.7931ZM1.18903 27.0345C1.15476 27.0345 1.12386 27.0219 1.09345 27.0108C1.01814 26.9751 0.965517 26.8998 0.965517 26.811V19.7931H20.7586V26.811C20.7586 26.8998 20.706 26.9746 20.6307 27.0108C20.6003 27.0219 20.5694 27.0345 20.5351 27.0345H1.18903ZM0.965517 18.8276V1.41255C0.965517 1.30779 0.981448 0.965517 1.18903 0.965517H14.9935C14.9776 1.02634 14.9655 1.0891 14.9655 1.15428V6.75862H20.5699C20.635 6.75862 20.6973 6.74655 20.7581 6.73062C20.7581 6.73786 20.7586 6.74076 20.7586 6.748V18.8276H0.965517Z" fill="#212121"/>
<path d="M7.50297 21.6006C7.34221 21.4688 7.1607 21.3693 6.95842 21.3037C6.75615 21.2375 6.55146 21.2047 6.34483 21.2047H4.9458V26.069H5.73801V24.3132H6.32552C6.58042 24.3132 6.81408 24.276 7.02504 24.2012C7.23601 24.1264 7.41656 24.0206 7.56621 23.8845C7.71587 23.7484 7.83221 23.5799 7.91621 23.3795C7.99973 23.1792 8.04173 22.9562 8.04173 22.7095C8.04173 22.4763 7.99201 22.2663 7.89304 22.079C7.79408 21.8917 7.66373 21.7328 7.50297 21.6006ZM7.2027 23.2077C7.15394 23.3419 7.0907 23.4462 7.01152 23.521C6.93235 23.5958 6.84546 23.6499 6.75083 23.6827C6.65621 23.7155 6.56015 23.7324 6.46359 23.7324H5.73752V21.8053H6.33132C6.53359 21.8053 6.69628 21.8371 6.81987 21.9009C6.94297 21.9646 7.03856 22.0437 7.10711 22.1384C7.17518 22.233 7.22008 22.332 7.24228 22.4353C7.26401 22.5386 7.27511 22.6298 7.27511 22.709C7.27511 22.9074 7.25097 23.0735 7.2027 23.2077Z" fill="#212121"/>
<path d="M12.2877 21.9173C12.0831 21.702 11.8257 21.5286 11.5153 21.3993C11.2049 21.2699 10.8453 21.2047 10.4364 21.2047H8.97119V26.069H10.8124C10.8737 26.069 10.9684 26.0613 11.0963 26.0458C11.2237 26.0304 11.3647 25.9956 11.5187 25.9401C11.6727 25.8851 11.832 25.8025 11.9971 25.6924C12.1622 25.5824 12.3104 25.4317 12.4427 25.2401C12.575 25.0484 12.6836 24.8109 12.7695 24.5271C12.8555 24.2432 12.8984 23.9009 12.8984 23.5007C12.8984 23.2101 12.8477 22.9272 12.7468 22.6525C12.645 22.3783 12.4924 22.1331 12.2877 21.9173ZM11.7104 24.9731C11.4728 25.3164 11.0857 25.4877 10.5488 25.4877H9.7634V21.8048H10.2254C10.6039 21.8048 10.9119 21.8545 11.1494 21.9535C11.3869 22.0524 11.5752 22.1823 11.7137 22.3431C11.8523 22.5038 11.9455 22.6829 11.9942 22.8808C12.0425 23.0788 12.0666 23.2791 12.0666 23.4814C12.0666 24.1326 11.9479 24.6304 11.7104 24.9731Z" fill="#212121"/>
<path d="M14.0474 26.069H14.8526V23.8777H16.8855V23.3366H14.8526V21.8053H17.0897V21.2047H14.0474V26.069Z" fill="#212121"/>
<path d="M15.4133 11.0845C14.9697 11.0845 14.4251 11.1424 13.7922 11.2573C12.9088 10.3198 11.9867 8.95067 11.3359 7.60667C11.9814 4.88922 11.6584 4.50446 11.516 4.32294C11.3644 4.12984 11.1505 3.81653 10.9072 3.81653C10.8054 3.81653 10.5273 3.86287 10.4168 3.89956C10.1387 3.99225 9.98903 4.2066 9.86931 4.48611C9.528 5.28411 9.99627 6.64453 10.4781 7.69308C10.0663 9.33108 9.37545 11.2916 8.64938 12.8827C6.81972 13.7208 5.84793 14.5439 5.76007 15.3294C5.7282 15.6152 5.79579 16.0347 6.29834 16.4117C6.43593 16.5145 6.59717 16.5691 6.76517 16.5691C7.18758 16.5691 7.61434 16.2456 8.1082 15.5519C8.46834 15.046 8.85503 14.3561 9.25862 13.4997C10.5514 12.9344 12.1508 12.4236 13.5204 12.1374C14.2832 12.8697 14.9663 13.2405 15.5533 13.2405C15.9859 13.2405 16.3566 13.0416 16.625 12.6655C16.9045 12.274 16.9683 11.9235 16.8133 11.6227C16.6274 11.2612 16.1693 11.0845 15.4133 11.0845ZM6.77579 15.7542C6.54986 15.5809 6.56289 15.464 6.56772 15.4201C6.59765 15.1517 7.01813 14.6752 8.04979 14.0954C7.26772 15.5398 6.84772 15.7315 6.77579 15.7542ZM10.7344 4.68839C10.7552 4.68163 11.2389 5.21991 10.7808 6.24094C10.0923 5.5366 10.6871 4.70432 10.7344 4.68839ZM9.73655 12.4251C10.2265 11.2573 10.6823 9.96784 11.0274 8.77349C11.5696 9.7477 12.2208 10.6929 12.8725 11.4499C11.8423 11.6918 10.7455 12.0331 9.73655 12.4251ZM15.9646 12.1938C15.8159 12.4019 15.4934 12.4067 15.3805 12.4067C15.1232 12.4067 15.0271 12.2537 14.6337 11.951C14.9581 11.9095 15.2641 11.8989 15.5079 11.8989C15.9371 11.8989 16.0158 11.9621 16.0752 11.994C16.0645 12.0283 16.0365 12.0929 15.9646 12.1938Z" fill="#212121"/>
</svg>
