<svg width="18" height="18" viewBox="0 0 18 18" fill="none" xmlns="http://www.w3.org/2000/svg">
<path d="M17.5277 13.8864L13.8844 11.4566C13.4221 11.1507 12.8023 11.2513 12.4605 11.6878L11.3993 13.0524C11.2629 13.2323 11.015 13.2845 10.8177 13.1748L10.6158 13.0635C9.94658 12.6988 9.11392 12.2446 7.43626 10.5662C5.75861 8.88787 5.30358 8.05452 4.93882 7.3865L4.82813 7.18461C4.71701 6.98733 4.76819 6.73834 4.9481 6.60085L6.31168 5.53985C6.74797 5.19798 6.84875 4.57836 6.54325 4.11585L4.11361 0.472325C3.80052 0.00133792 3.17237 -0.14005 2.68767 0.151338L1.16419 1.06656C0.685504 1.348 0.33431 1.8038 0.184251 2.33845C-0.364352 4.33749 0.0483563 7.78753 5.13021 12.8703C9.17273 16.9128 12.1822 18 14.2507 18C14.7267 18.002 15.2009 17.94 15.6605 17.8158C16.1952 17.6659 16.651 17.3146 16.9323 16.8358L17.8484 15.3131C18.1401 14.8283 17.9988 14.1997 17.5277 13.8864ZM17.3315 15.0053L16.4175 16.5289C16.2156 16.8745 15.8877 17.1286 15.5027 17.238C13.6573 17.7447 10.4334 17.325 5.55463 12.4459C0.675838 7.56677 0.25624 4.34291 0.762872 2.49717C0.872403 2.1116 1.12683 1.78331 1.47285 1.58103L2.99633 0.667005C3.20664 0.540453 3.47927 0.601795 3.61513 0.806178L4.93495 2.78782L6.0427 4.44939C6.17536 4.65001 6.13177 4.9189 5.94252 5.06735L4.57862 6.12835C4.16356 6.44575 4.04503 7.02006 4.30058 7.47586L4.40888 7.67265C4.79224 8.37579 5.26885 9.25051 7.0089 10.9904C8.74894 12.7303 9.62333 13.2069 10.3261 13.5903L10.5232 13.6989C10.9789 13.9544 11.5532 13.8359 11.8706 13.4208L12.9315 12.0568C13.08 11.8677 13.3487 11.8241 13.5494 11.9566L17.1924 14.3864C17.3969 14.5222 17.4582 14.795 17.3315 15.0053Z"/>
</svg>
