<svg width="43" height="43" viewBox="0 0 43 43" fill="none" xmlns="http://www.w3.org/2000/svg">
<path d="M43 7.16699H0V35.833H43V7.16699Z" fill="#D80027"/>
<path d="M43 27.1088H0V35.8331H43V27.1088Z" fill="#6DA544"/>
<path d="M43 7.16699H0V15.9446H43V7.16699Z" fill="#338AF3"/>
<path d="M43 17.7103H0V25.24H43V17.7103Z" fill="#F0F0F0"/>
<path d="M43 7.16699H0V15.9446H43V7.16699Z" fill="#338AF3"/>
<path d="M15.8468 11.5553C15.8468 10.2129 16.7903 9.09128 18.0503 8.81623C17.8566 8.77399 17.6557 8.75098 17.4493 8.75098C15.9005 8.75098 14.645 10.0065 14.645 11.5553C14.645 13.1041 15.9005 14.3596 17.4493 14.3596C17.6558 14.3596 17.8567 14.3367 18.0503 14.2944C16.7903 14.0193 15.8468 12.8977 15.8468 11.5553Z" fill="#F0F0F0"/>
<path d="M19.7075 12.83L19.8974 13.4142H20.5117L20.0147 13.7755L20.2046 14.3596L19.7075 13.9985L19.2105 14.3596L19.4003 13.7755L18.9033 13.4142H19.5177L19.7075 12.83Z" fill="#F0F0F0"/>
<path d="M21.6684 12.83L21.8582 13.4142H22.4726L21.9755 13.7755L22.1654 14.3596L21.6684 13.9985L21.1714 14.3596L21.3612 13.7755L20.8643 13.4142H21.4785L21.6684 12.83Z" fill="#F0F0F0"/>
<path d="M23.6294 12.83L23.8192 13.4142H24.4336L23.9366 13.7755L24.1264 14.3596L23.6294 13.9985L23.1324 14.3596L23.3222 13.7755L22.8252 13.4142H23.4395L23.6294 12.83Z" fill="#F0F0F0"/>
<path d="M25.5898 12.83L25.7798 13.4142H26.3941L25.897 13.7755L26.0869 14.3596L25.5898 13.9985L25.0928 14.3596L25.2827 13.7755L24.7856 13.4142H25.3999L25.5898 12.83Z" fill="#F0F0F0"/>
<path d="M27.5507 12.83L27.7405 13.4142H28.3549L27.8579 13.7755L28.0478 14.3596L27.5507 13.9985L27.0537 14.3596L27.2435 13.7755L26.7466 13.4142H27.3608L27.5507 12.83Z" fill="#F0F0F0"/>
<path d="M21.6684 10.7905L21.8582 11.3747H22.4726L21.9755 11.7359L22.1654 12.3201L21.6684 11.9591L21.1714 12.3201L21.3612 11.7359L20.8643 11.3747H21.4785L21.6684 10.7905Z" fill="#F0F0F0"/>
<path d="M23.6294 10.7905L23.8192 11.3747H24.4336L23.9366 11.7359L24.1264 12.3201L23.6294 11.9591L23.1324 12.3201L23.3222 11.7359L22.8252 11.3747H23.4395L23.6294 10.7905Z" fill="#F0F0F0"/>
<path d="M25.5898 10.7905L25.7798 11.3747H26.3941L25.897 11.7359L26.0869 12.3201L25.5898 11.9591L25.0928 12.3201L25.2827 11.7359L24.7856 11.3747H25.3999L25.5898 10.7905Z" fill="#F0F0F0"/>
<path d="M27.5507 10.7905L27.7405 11.3747H28.3549L27.8579 11.7359L28.0478 12.3201L27.5507 11.9591L27.0537 12.3201L27.2435 11.7359L26.7466 11.3747H27.3608L27.5507 10.7905Z" fill="#F0F0F0"/>
<path d="M23.6294 8.75098L23.8192 9.33517H24.4336L23.9366 9.69631L24.1264 10.2806L23.6294 9.91945L23.1324 10.2806L23.3222 9.69631L22.8252 9.33517H23.4395L23.6294 8.75098Z" fill="#F0F0F0"/>
<path d="M25.5898 8.75098L25.7798 9.33517H26.3941L25.897 9.69631L26.0869 10.2806L25.5898 9.91945L25.0928 10.2806L25.2827 9.69631L24.7856 9.33517H25.3999L25.5898 8.75098Z" fill="#F0F0F0"/>
<path d="M27.5507 8.75098L27.7405 9.33517H28.3549L27.8579 9.69631L28.0478 10.2806L27.5507 9.91945L27.0537 10.2806L27.2435 9.69631L26.7466 9.33517H27.3608L27.5507 8.75098Z" fill="#F0F0F0"/>
</svg>
